<svg xmlns="http://www.w3.org/2000/svg" width="123.015" height="62.38" viewBox="0 0 123.015 62.38">
  <g id="Group_421" data-name="Group 421" transform="translate(-52.563 -1768.202)">
    <g id="Group_222" data-name="Group 222">
      <path id="Path_267" data-name="Path 267" d="M81.249,1808.732l-.6,10.159H52.563v-.652a17.9,17.9,0,0,0,3.858-.6,2.588,2.588,0,0,0,1.521-2.663v-28.957a2.557,2.557,0,0,0-1.521-2.662,14.749,14.749,0,0,0-3.858-.923v-.653H78.641v8.367h-.924c-.488-2.336-2.825-6.791-4.889-7.117a28.044,28.044,0,0,0-4.02-.272h-6.52v16.3h4.564a4.506,4.506,0,0,0,4.074-1.793c.707-.815,1.2-3.531,1.359-4.944h.923v14.941h-.923a15.091,15.091,0,0,0-1.359-5.216,4.482,4.482,0,0,0-4.074-1.793H62.288v12.55c0,4.455.815,5.053,5.759,5.053,3.423,0,7.389.054,8.584-1.3,1.467-1.684,3.314-6.193,3.8-7.823Zm-10.54-35.64c-1.467,1.3-3.205,2.608-7.117,6.085l-.489-.489c2.5-4.02,3.8-6.139,4.89-8.15.869-1.684,1.575-2.336,2.825-2.336a1.772,1.772,0,0,1,1.738,1.956C72.556,1771.516,71.959,1772.005,70.709,1773.092Z" fill="#1a1a1a"/>
      <path id="Path_268" data-name="Path 268" d="M99.527,1818.956a7.9,7.9,0,0,1-5.487-1.685h-.218v9.291a2.767,2.767,0,0,0,1.358,2.607,13.375,13.375,0,0,0,3.315.761v.652H86.108v-.652a10.089,10.089,0,0,0,2.662-.435c.923-.326,1.249-1.629,1.249-2.825v-28.414a3.362,3.362,0,0,0-1.249-2.77,6.677,6.677,0,0,0-2.717-.87v-.543l7.389-.6.326.326v2.771l.217.055c1.141-1.359,3.532-3.532,6.574-3.532,5.868,0,10.16,5.053,10.16,13.039C110.719,1813.631,105.449,1818.956,99.527,1818.956ZM99.255,1795a6.841,6.841,0,0,0-5.433,2.716v15.973a6,6,0,0,0,5.705,4.509c4.02,0,7.008-4.292,7.008-12.007C106.535,1800.7,104.525,1795,99.255,1795Z" fill="#1a1a1a"/>
      <path id="Path_269" data-name="Path 269" d="M137.9,1812.221c-.218,5-1.9,6.683-4.4,6.683-2.119,0-3.586-1.141-4.183-3.64h-.163a9.066,9.066,0,0,1-7.226,3.748c-3.368,0-5.65-2.01-5.65-5.487,0-4.455,2.336-5.867,4.781-6.9,2.825-1.195,6.139-2.173,8.258-3.477v-3.694c0-2.88-1.25-5.433-4.672-5.433a3.521,3.521,0,0,0-3.152,1.793c.055.978.381,2.662.381,3.586,0,1.141-.869,2.064-2.662,2.064-1.2,0-1.685-1.3-1.685-2.553,0-3.151,3.912-5.65,7.552-5.65,4.509,0,8.1,1.14,8.1,8.04,0,4.727-.217,10.377-.217,12.17,0,1.847.434,3.26,1.9,3.26,1.359,0,2.01-1.685,2.173-4.51Zm-8.584-7.769c-5.487,1.739-8.964,3.64-8.964,8.421,0,2.988,1.195,4.509,3.477,4.509,2.336,0,3.966-1.412,5.269-3.2Z" fill="#1a1a1a"/>
      <path id="Path_270" data-name="Path 270" d="M154.264,1818.891H143.4v-.652a6.846,6.846,0,0,0,2.227-.326,2.473,2.473,0,0,0,1.3-2.5v-16.57a3.345,3.345,0,0,0-1.358-2.717,6.683,6.683,0,0,0-2.825-.923v-.544l7.66-.6.326.38v20.645a2.441,2.441,0,0,0,1.359,2.608,6.051,6.051,0,0,0,2.173.543Zm-5.868-33.955a2.565,2.565,0,0,1-2.5-2.5,2.675,2.675,0,0,1,2.5-2.663,2.459,2.459,0,0,1,2.608,2.337A2.729,2.729,0,0,1,148.4,1784.936Z" fill="#1a1a1a"/>
      <path id="Path_271" data-name="Path 271" d="M167.374,1818.891a10.429,10.429,0,0,1-6.248-2.227l-.923,2.227h-.652l-.218-8.747h.652c.978,4.075,3.966,7.823,7.606,7.823,3.8,0,5.487-2.173,5.487-5.161,0-2.933-2.227-3.966-6.084-5.27-4.075-1.358-7.117-3.1-7.117-7.66,0-3.966,2.988-6.9,7.388-6.9a9.118,9.118,0,0,1,5.325,1.684l.923-1.738h.652l.326,7.334h-.652c-.869-3.151-3.749-6.41-6.845-6.41a4.313,4.313,0,0,0-4.564,4.346c0,3.1,2.173,4.129,6.031,5.433,4.237,1.412,7.117,3.259,7.117,7.769C175.578,1815.957,171.883,1818.891,167.374,1818.891Z" fill="#1a1a1a"/>
    </g>
  </g>
</svg>
