<svg
  xmlns="http://www.w3.org/2000/svg"
  width="387.578"
  height="323.075"
  viewBox="0 0 387.578 323.075"
>
                <path
    id="Path_302"
    data-name="Path 302"
    d="M2867.772,220.413c52.5-19.373,94.666,14.667,149.333,48s126.731,19.115,134.667,99.667c6.666,67.667-125.334,92.333-168,143-26.728,31.74-135.334,48.667-176.667-28s-16-128-1.333-154S2811.772,241.08,2867.772,220.413Z"
    transform="translate(-2764.438 -214.765)"
    fill="#2ea6df"
    opacity="0.31"
  />
                <path
    id="Path_303"
    data-name="Path 303"
    d="M3087.265,293.7l1.605-9.628c-2.568.962-24.072,8.666-67.4,8.666a59.092,59.092,0,0,0-26.8,6.072c3.267-7.662,2.735-17.26,1.94-23.132.809-1.811,1.6-3.719,2.389-5.729,2.851-7.261-1.1-16.332-2.344-18.872,3.738-11.447.1-19,.1-19-14.443,25.677-64.193,30.812-64.193,45.9s-1.284,27.282-10.592,49.429a52.131,52.131,0,0,1-5.4,9.1c-9.911-15.109-17.983-35.736-41.784-35.736-30.171,0-27.924,26.961-28.245,27.924h-.057c-17.37,2.878-16.954,21.184-16.954,21.184,17.44-.918,25.317-4.984,28.872-8.3l7.552,14.334c2.88,3.18,7.169,5.061,12.247,6.017,4.5,25.076,19.374,64.437,32.533,77.5,34.473,34.213,92.759,21.825,92.759,21.825,21.826,40.763,58.095,21.826,58.095,21.826,4.554-.947,10.014-8.067,12.021-12.212a21.455,21.455,0,0,0,8.521-7.046c-54.243-8.345-91.375-55.282-99.178-65.477-.981-1.281-1.844-5.188-2.533-10.634a46.041,46.041,0,0,0,14.729,5.82c12.518,2.246,16.69-7.062,16.69-7.062l-26.465-24.409c7.763,5.858,20.2,13.948,30.959,16.385,17.011,3.852,31.455-9.629,26.319-10.592-4.559-.855-7.367-3.029-16.757-9.864-8.682-6.321-20.154-18.381-20.154-18.381,45.577,29.208,70.933-7.7,70.933-7.7a112.7,112.7,0,0,1-16.85-2.247c-7.656-1.512-27.443-8.666-27.443-8.666C3070.575,329.65,3083.414,309.429,3087.265,293.7Z"
    transform="translate(-2764.438 -214.765)"
    fill="#fff"
  />
                <path
    id="Path_304"
    data-name="Path 304"
    d="M2869.019,347.3l39.968,10.374a7.215,7.215,0,0,1,5.17,8.8l-18.064,69.592a7.214,7.214,0,0,1-8.795,5.17l-115.737-30.041a7.214,7.214,0,0,1-5.17-8.8l18.064-69.592a7.214,7.214,0,0,1,8.795-5.17l27.447,7.124Z"
    transform="translate(-2764.438 -214.765)"
    fill="#fff"
  />
                <path
    id="Path_305"
    data-name="Path 305"
    d="M2846.541,328.687c.321-.962-1.926-27.924,28.245-27.924,37.553,0,35.948,51.355,64.193,51.355"
    transform="translate(-2764.438 -214.765)"
    fill="none"
    stroke="#171c61"
    stroke-linecap="round"
    stroke-linejoin="round"
    stroke-width="3.402"
  />
                <path
    id="Path_306"
    data-name="Path 306"
    d="M2950.855,347.3c12.518-14.764,27.282-54.564,70.612-54.564s64.835-7.7,67.4-8.666"
    transform="translate(-2764.438 -214.765)"
    fill="none"
    stroke="#171c61"
    stroke-linecap="round"
    stroke-linejoin="round"
    stroke-width="3.402"
  />
                <path
    id="Path_307"
    data-name="Path 307"
    d="M3087.265,293.7c-3.851,15.728-16.69,35.948-54.885,27.282"
    transform="translate(-2764.438 -214.765)"
    fill="none"
    stroke="#171c61"
    stroke-linecap="round"
    stroke-linejoin="round"
    stroke-width="3.402"
  />
                <path
    id="Path_308"
    data-name="Path 308"
    d="M3059.823,329.65a88.772,88.772,0,0,0,16.85,2.247s-25.356,36.911-70.933,7.7"
    transform="translate(-2764.438 -214.765)"
    fill="none"
    stroke="#171c61"
    stroke-linecap="round"
    stroke-linejoin="round"
    stroke-width="3.402"
  />
                <path
    id="Path_309"
    data-name="Path 309"
    d="M3025.894,357.98c9.157,7.144,12.2,9.011,16.757,9.865,5.136.963-9.308,14.444-26.319,10.592-10.763-2.437-23.2-10.527-30.958-16.385"
    transform="translate(-2764.438 -214.765)"
    fill="none"
    stroke="#171c61"
    stroke-linecap="round"
    stroke-linejoin="round"
    stroke-width="3.402"
  />
                <path
    id="Path_310"
    data-name="Path 310"
    d="M3011.838,386.461s-4.172,9.308-16.69,7.062-23.751-12.2-23.751-12.2"
    transform="translate(-2764.438 -214.765)"
    fill="none"
    stroke="#171c61"
    stroke-linecap="round"
    stroke-linejoin="round"
    stroke-width="3.402"
  />
                <path
    id="Path_311"
    data-name="Path 311"
    d="M2982.951,398.337c7.7,10.271,44.936,57.132,99.179,65.477,0,0-11.876,19.258-42.689,3.21"
    transform="translate(-2764.438 -214.765)"
    fill="none"
    stroke="#171c61"
    stroke-linecap="round"
    stroke-linejoin="round"
    stroke-width="3.402"
  />
                <path
    id="Path_312"
    data-name="Path 312"
    d="M3061.588,483.072s-36.269,18.937-58.095-21.826c0,0-58.415,12.518-92.759-21.825"
    transform="translate(-2764.438 -214.765)"
    fill="none"
    stroke="#171c61"
    stroke-linecap="round"
    stroke-linejoin="round"
    stroke-width="3.402"
  />
                <path
    id="Path_313"
    data-name="Path 313"
    d="M2921.968,327.4c9.308-22.147,10.592-34.344,10.592-49.429s49.75-20.221,64.193-45.9"
    transform="translate(-2764.438 -214.765)"
    fill="none"
    stroke="#171c61"
    stroke-linecap="round"
    stroke-linejoin="round"
    stroke-width="3.402"
  />
                <path
    id="Path_314"
    data-name="Path 314"
    d="M2998.037,245.236c-3.21,14.765-9.629,32.418-35.306,33.06"
    transform="translate(-2764.438 -214.765)"
    fill="none"
    stroke="#171c61"
    stroke-linecap="round"
    stroke-linejoin="round"
    stroke-width="3.402"
  />
                <path
    id="Path_315"
    data-name="Path 315"
    d="M2999,269.951c-7.061,17.974-14.123,28.245-35.306,26.319"
    transform="translate(-2764.438 -214.765)"
    fill="none"
    stroke="#171c61"
    stroke-linecap="round"
    stroke-linejoin="round"
    stroke-width="3.402"
  />
                <path
    id="Path_316"
    data-name="Path 316"
    d="M2846.484,328.687c-17.37,2.878-16.954,21.184-16.954,21.184,30.492-1.605,31.776-12.838,31.776-12.838s-5.216-2.244-8.177-5.468"
    transform="translate(-2764.438 -214.765)"
    fill="none"
    stroke="#171c61"
    stroke-linecap="round"
    stroke-linejoin="round"
    stroke-width="3.402"
  />
                <circle
    id="Ellipse_111"
    data-name="Ellipse 111"
    cx="3.563"
    cy="3.563"
    r="3.563"
    transform="translate(108.237 105.085)"
    fill="none"
    stroke="#171c61"
    stroke-linecap="round"
    stroke-linejoin="round"
    stroke-width="3.402"
  />
                <path
    id="Path_317"
    data-name="Path 317"
    d="M2869.019,347.3l39.968,10.374a7.215,7.215,0,0,1,5.17,8.8l-18.064,69.592a7.214,7.214,0,0,1-8.795,5.17l-115.737-30.041a7.214,7.214,0,0,1-5.17-8.8l18.064-69.592a7.214,7.214,0,0,1,8.795-5.17l27.447,7.124"
    transform="translate(-2764.438 -214.765)"
    fill="none"
    stroke="#171c61"
    stroke-linecap="round"
    stroke-linejoin="round"
    stroke-width="3.402"
  />
                <path
    id="Path_318"
    data-name="Path 318"
    d="M2913.223,360.744l-67.567,21.944a8.866,8.866,0,0,1-9.234-2.4l-48.365-52.035"
    transform="translate(-2764.438 -214.765)"
    fill="none"
    stroke="#171c61"
    stroke-linecap="round"
    stroke-linejoin="round"
    stroke-width="3.402"
  />
                <line
    id="Line_433"
    data-name="Line 433"
    x1="53.342"
    y2="43.296"
    transform="translate(7.124 153.133)"
    fill="none"
    stroke="#171c61"
    stroke-linecap="round"
    stroke-linejoin="round"
    stroke-width="3.402"
  />
                <line
    id="Line_434"
    data-name="Line 434"
    x2="25.551"
    y2="63.773"
    transform="translate(97.31 162.697)"
    fill="none"
    stroke="#171c61"
    stroke-linecap="round"
    stroke-linejoin="round"
    stroke-width="3.402"
  />
              </svg>
