<svg
            xmlns="http://www.w3.org/2000/svg"
            xmlns:xlink="http://www.w3.org/1999/xlink"
            width="47"
            height="47"
            viewBox="0 0 47 47"
          >
            <defs>
              <clipPath id="clip-path">
                <circle
                  id="Ellipse_58"
                  data-name="Ellipse 58"
                  cx="23"
                  cy="23"
                  r="23"
                  transform="translate(2678.667 5914.67)"
                  fill="none"
                />
              </clipPath>
            </defs>
            <g id="Group_123" data-name="Group 123" transform="translate(-2678.167 -5914.17)">
              <g id="Group_122" data-name="Group 122" clip-path="url(#clip-path)">
                <g id="Group_121" data-name="Group 121">
                  <path
                    id="Path_152"
                    data-name="Path 152"
                    d="M2710.147,5928.319v8.161a6.341,6.341,0,0,1-2.411,4.976l-3.091,2.44a4.577,4.577,0,0,1-2.835.984h-.287a4.572,4.572,0,0,1-2.834-.984l-3.092-2.44a6.344,6.344,0,0,1-2.411-4.976v-8.161a8.481,8.481,0,0,1,8.481-8.481h0A8.481,8.481,0,0,1,2710.147,5928.319Z"
                    fill="none"
                    stroke="#000"
                    stroke-miterlimit="10"
                    stroke-width="1"
                  />
                  <path
                    id="Path_153"
                    data-name="Path 153"
                    d="M2691.778,5931.363h-1.511a.925.925,0,0,0-.924.924v1.916a.924.924,0,0,0,.314.693l2.279,2"
                    fill="none"
                    stroke="#000"
                    stroke-miterlimit="10"
                    stroke-width="1"
                  />
                  <path
                    id="Path_154"
                    data-name="Path 154"
                    d="M2711.555,5931.363h1.512a.924.924,0,0,1,.923.924v1.916a.921.921,0,0,1-.314.693l-2.279,2"
                    fill="none"
                    stroke="#000"
                    stroke-miterlimit="10"
                    stroke-width="1"
                  />
                  <line
                    id="Line_254"
                    data-name="Line 254"
                    y2="3.309"
                    transform="translate(2696.111 5944.025)"
                    fill="none"
                    stroke="#000"
                    stroke-miterlimit="10"
                    stroke-width="1"
                  />
                  <path
                    id="Path_155"
                    data-name="Path 155"
                    d="M2699.178,5953.723l-6.233-3.578,1.11-4.171,5.123,2.941"
                    fill="none"
                    stroke="#000"
                    stroke-miterlimit="10"
                    stroke-width="1"
                  />
                  <line
                    id="Line_255"
                    data-name="Line 255"
                    y2="3.309"
                    transform="translate(2707.223 5944.025)"
                    fill="none"
                    stroke="#000"
                    stroke-miterlimit="10"
                    stroke-width="1"
                  />
                  <path
                    id="Path_156"
                    data-name="Path 156"
                    d="M2704.155,5953.723l6.232-3.578-1.11-4.171-7.241,4.157v9.441"
                    fill="none"
                    stroke="#000"
                    stroke-miterlimit="10"
                    stroke-width="1"
                  />
                  <line
                    id="Line_256"
                    data-name="Line 256"
                    x1="9.35"
                    y2="4.504"
                    transform="translate(2683.596 5950.145)"
                    fill="none"
                    stroke="#000"
                    stroke-miterlimit="10"
                    stroke-width="1"
                  />
                  <line
                    id="Line_257"
                    data-name="Line 257"
                    x2="9.35"
                    y2="4.504"
                    transform="translate(2710.388 5950.145)"
                    fill="none"
                    stroke="#000"
                    stroke-miterlimit="10"
                    stroke-width="1"
                  />
                </g>
              </g>
            </g>
            <circle
              id="Ellipse_59"
              data-name="Ellipse 59"
              cx="23"
              cy="23"
              r="23"
              transform="translate(0.5 0.5)"
              fill="none"
              stroke="#000"
              stroke-miterlimit="10"
              stroke-width="1"
            />
          </svg>