<svg xmlns="http://www.w3.org/2000/svg" width="111.602" height="30.386" viewBox="0 0 111.602 30.386">
  <path
    id="Path_378"
    data-name="Path 378"
    d="M2184.779,4550.969h-3.24a1.138,1.138,0,0,1-1.229-1.006c0-.67.559-1,1.229-1h5.921l1.34-3.016h-7.261c-3.016,0-4.692,1.787-4.692,4.133,0,2.458,1.676,3.91,4.245,3.91h3.24a1.138,1.138,0,0,1,1.229,1.005c0,.559-.447,1.006-1.229,1.006h-7.15v3.016h7.15c3.016,0,4.692-1.787,4.692-4.245s-1.564-3.8-4.245-3.8m-13.071,0h-3.239a1.137,1.137,0,0,1-1.229-1.006c0-.67.558-1,1.229-1h5.92l1.341-3.016h-7.261c-3.017,0-4.692,1.787-4.692,4.133,0,2.458,1.675,3.91,4.245,3.91h3.24a1.137,1.137,0,0,1,1.228,1.005c0,.559-.447,1.006-1.228,1.006h-7.15v3.016h7.15c3.016,0,4.691-1.787,4.691-4.245.112-2.458-1.452-3.8-4.245-3.8m-20.667,8.155h11.172v-3.017h-7.6v-2.122h7.485v-3.016h-7.485v-2.123h7.6v-3.016h-11.172Zm-6.926-7.6h-3.686v-2.681h3.686a1.421,1.421,0,0,1,1.564,1.341c0,.782-.558,1.34-1.564,1.34m5.139-1.452c0-2.569-1.787-4.245-4.692-4.245h-7.708v13.294h3.575v-4.581h1.34l4.022,4.581h4.245l-4.357-4.8a4.286,4.286,0,0,0,3.575-4.245m-19.1,1.676h-3.8v-2.9h3.8a1.439,1.439,0,0,1,1.564,1.452,1.382,1.382,0,0,1-1.564,1.453m.447-5.921h-7.708v13.294h3.575v-4.357h4.133c3.016,0,4.8-1.9,4.8-4.469a4.436,4.436,0,0,0-4.8-4.468m-8.379,0h-4.58l-3.351,4.022-3.463-4.022h-4.692l5.921,6.591-6.033,6.7h4.58l3.575-4.245,3.575,4.245h4.692l-6.033-6.815Zm-27.816,13.294h11.171v-3.017h-7.708v-2.122h7.485v-3.016h-7.485v-2.123h7.708v-3.016H2094.4Zm89.035-22.231-5.474-8.044H2173.5v13.183h3.575v-8.379l5.585,8.379h4.245v-13.183h-3.463Zm-20.555-.447,1.9-4.469,1.9,4.469Zm-.447-7.6-5.809,13.294h3.91l1.117-2.681h6.144l1.118,2.681h4.021l-5.921-13.294Zm-11.618,6.7v-.223a3.056,3.056,0,0,1,3.351-3.352h3.91v-3.239h-4.245c-4.357,0-6.591,2.793-6.591,6.479v.224c0,4.133,2.57,6.479,6.48,6.479h1.228l1.453-3.016h-2.123a3.041,3.041,0,0,1-3.463-3.352m-8.937-6.7v13.183h3.575v-13.183Zm-6.926,5.586h-3.687v-2.681h3.687a1.422,1.422,0,0,1,1.564,1.341c0,.782-.559,1.34-1.564,1.34m5.139-1.34c0-2.57-1.788-4.246-4.692-4.246h-7.709v13.294h3.575v-4.692h1.341l4.021,4.581h4.357l-4.468-4.8a4.175,4.175,0,0,0,3.575-4.133m-25.918,8.937h11.171v-3.017h-7.6v-2.122h7.373v-3.016h-7.373v-2.123h7.6v-2.9h-11.171Zm-11.283-4.916-3.016-8.267H2094.4v13.183h3.463v-9.5l3.463,9.5h3.128l3.463-9.5v9.5h3.575v-13.183h-5.586Zm-19.215-.67,1.9-4.469,1.9,4.469Zm-.446-7.6-5.81,13.183h3.91l1.118-2.682h6.144l1.117,2.682h4.022l-5.921-13.183Z"
    transform="translate(-2077.422 -4528.738)"
    fill="#006fce"
  />
</svg>
