<svg
  xmlns="http://www.w3.org/2000/svg"
  width="398.178"
  height="397.299"
  viewBox="0 0 398.178 397.299"
>
            <g
    id="Group_129"
    data-name="Group 129"
    transform="translate(-2695.732 -6112.98)"
  >
              <path
      id="Path_167"
      data-name="Path 167"
      d="M2952.847,6471.458c-53.714,4.261-83.923-38.294-125.9-83.454s-112.484-50.783-98.824-127.52c11.475-64.462,140.266-52.887,193.034-88.72,33.056-22.447,138.142-9.8,156.453,72.046s-18.564,122.823-38.942,143.1S3010.148,6466.911,2952.847,6471.458Z"
      fill="#f4e24d"
      opacity="0.56"
    />
              <path
      id="Path_168"
      data-name="Path 168"
      d="M2871.423,6385.52l-3.282-.809a12.888,12.888,0,0,1,6.169-25.027l47.09,11.608-.091-47.9a18.384,18.384,0,0,1,22.778-17.253,4.717,4.717,0,0,1,3.586,4.725l-.878,28.467a54.551,54.551,0,0,0,18.723,42.839l1.537,1.336a54.875,54.875,0,0,0,22.882,11.878l1.64.4.554-2.246a4.672,4.672,0,0,1,5.655-3.418l10.231,2.521.535-2.171a6.12,6.12,0,0,1,7.407-4.478l65.982,16.265-26.119,105.961-65.982-16.265a6.121,6.121,0,0,1-4.478-7.408l.535-2.17-10.23-2.522a4.673,4.673,0,0,1-3.419-5.656l1.052-4.268-17.077-4.21c-9.122-2.249-28.68,9.655-45.3,5.557l-46.355-11.426a11.131,11.131,0,0,1,5.328-21.614l-3.423-.844a12.888,12.888,0,1,1,6.169-25.027l-7.384-1.82a12.888,12.888,0,1,1,6.169-25.027Z"
      fill="#fff"
    />
              <line
      id="Line_262"
      data-name="Line 262"
      x2="53.913"
      y2="13.29"
      transform="translate(2874.311 6359.685)"
      fill="none"
      stroke="#171c61"
      stroke-linecap="round"
      stroke-linejoin="round"
      stroke-width="3.402"
    />
              <path
      id="Path_169"
      data-name="Path 169"
      d="M2874.311,6359.684a12.888,12.888,0,0,0-6.17,25.027l36.371,8.966"
      fill="none"
      stroke="#171c61"
      stroke-linecap="round"
      stroke-linejoin="round"
      stroke-width="3.402"
    />
              <path
      id="Path_170"
      data-name="Path 170"
      d="M2861.671,6387a12.888,12.888,0,0,0,3.583,23.543l33.089,8.156"
      fill="none"
      stroke="#171c61"
      stroke-linecap="round"
      stroke-linejoin="round"
      stroke-width="3.402"
    />
              <path
      id="Path_171"
      data-name="Path 171"
      d="M2860.9,6415.326a12.89,12.89,0,0,0,5.567,22.068l25.705,6.336"
      fill="none"
      stroke="#171c61"
      stroke-linecap="round"
      stroke-linejoin="round"
      stroke-width="3.402"
    />
              <path
      id="Path_172"
      data-name="Path 172"
      d="M2860.178,6440.43a11.132,11.132,0,0,0,4.386,19.422l29.766,7.337,8.914,2.2,7.675,1.892c16.624,4.1,36.182-7.807,45.3-5.558l15.437,3.8"
      fill="none"
      stroke="#171c61"
      stroke-linecap="round"
      stroke-linejoin="round"
      stroke-width="3.402"
    />
              <path
      id="Path_173"
      data-name="Path 173"
      d="M2921.387,6364.59l-.078-41.2a18.4,18.4,0,0,1,.525-3.8h0a18.386,18.386,0,0,1,22.253-13.452h0a4.718,4.718,0,0,1,3.586,4.725l-.878,28.467a54.542,54.542,0,0,0,5.194,24.967h0a54.553,54.553,0,0,0,13.529,17.872l1.537,1.336a54.875,54.875,0,0,0,22.882,11.878h0"
      fill="none"
      stroke="#171c61"
      stroke-linecap="round"
      stroke-linejoin="round"
      stroke-width="3.402"
    />
              <path
      id="Path_174"
      data-name="Path 174"
      d="M2989.839,6402.839l2.292-9.3a4.671,4.671,0,0,1,5.655-3.418l10.231,2.521-22.12,89.733-10.23-2.521a4.673,4.673,0,0,1-3.419-5.656l14.132-57.329"
      fill="none"
      stroke="#171c61"
      stroke-linecap="round"
      stroke-linejoin="round"
      stroke-width="3.402"
    />
              <path
      id="Path_175"
      data-name="Path 175"
      d="M3055.822,6508.22l-65.982-16.265a6.12,6.12,0,0,1-4.478-7.407l23.19-94.076a6.119,6.119,0,0,1,7.407-4.477l65.982,16.264"
      fill="none"
      stroke="#171c61"
      stroke-linecap="round"
      stroke-linejoin="round"
      stroke-width="3.402"
    />
              <path
      id="Path_176"
      data-name="Path 176"
      d="M2953.024,6292.275l15.09-20.458a2.058,2.058,0,0,0-1.2-3.229l-14.707-3.34a2.058,2.058,0,0,0-2.514,1.974l-.382,23.8A2.058,2.058,0,0,0,2953.024,6292.275Z"
      fill="#fff"
      stroke="#171c61"
      stroke-linecap="round"
      stroke-linejoin="round"
      stroke-width="3.402"
    />
              <path
      id="Path_177"
      data-name="Path 177"
      d="M2935.845,6291.7l-5.258-27.682a2.059,2.059,0,0,0-3.068-1.389l-13.48,7.948a2.059,2.059,0,0,0-.448,3.191l18.739,19.734A2.058,2.058,0,0,0,2935.845,6291.7Z"
      fill="#fff"
      stroke="#171c61"
      stroke-linecap="round"
      stroke-linejoin="round"
      stroke-width="3.402"
    />
              <path
      id="Path_178"
      data-name="Path 178"
      d="M2873.836,6242.959l2.781-.466a10.75,10.75,0,0,0-3.557-21.2l-39.9,6.693,3.088-39.835a15.337,15.337,0,0,0-17.86-15.783,3.935,3.935,0,0,0-3.279,3.705l-1.06,23.731a45.491,45.491,0,0,1-18.267,34.453l-1.362,1.015a45.768,45.768,0,0,1-19.778,8.439l-1.39.234-.319-1.9a3.9,3.9,0,0,0-4.489-3.2l-8.668,1.454-.308-1.84a5.106,5.106,0,0,0-5.88-4.19l-55.9,9.378,15.06,89.772,55.9-9.378a5.1,5.1,0,0,0,4.19-5.879l-.308-1.839,8.667-1.454a3.9,3.9,0,0,0,3.2-4.489l-.606-3.616,14.468-2.427c7.729-1.3,23.246,9.834,37.331,7.471l39.273-6.588a9.284,9.284,0,1,0-3.072-18.312l2.9-.487a10.75,10.75,0,0,0-3.557-21.2l6.256-1.05a10.75,10.75,0,0,0-3.557-21.2Z"
      fill="#fff"
    />
              <line
      id="Line_263"
      data-name="Line 263"
      x1="45.676"
      y2="7.662"
      transform="translate(2827.383 6221.29)"
      fill="none"
      stroke="#171c61"
      stroke-linecap="round"
      stroke-linejoin="round"
      stroke-width="3.402"
    />
              <path
      id="Path_179"
      data-name="Path 179"
      d="M2873.059,6221.289a10.75,10.75,0,1,1,3.557,21.2l-30.814,5.169"
      fill="none"
      stroke="#171c61"
      stroke-linecap="round"
      stroke-linejoin="round"
      stroke-width="3.402"
    />
              <path
      id="Path_180"
      data-name="Path 180"
      d="M2881.853,6244.807a10.749,10.749,0,0,1-4.46,19.355l-28.034,4.7"
      fill="none"
      stroke="#171c61"
      stroke-linecap="round"
      stroke-linejoin="round"
      stroke-width="3.402"
    />
              <path
      id="Path_181"
      data-name="Path 181"
      d="M2880.712,6268.411a10.751,10.751,0,0,1-6.018,18l-21.778,3.654"
      fill="none"
      stroke="#171c61"
      stroke-linecap="round"
      stroke-linejoin="round"
      stroke-width="3.402"
    />
              <path
      id="Path_182"
      data-name="Path 182"
      d="M2879.735,6289.336a9.285,9.285,0,0,1-4.869,15.878l-25.219,4.231-7.552,1.266-6.5,1.091c-14.085,2.363-29.6-8.768-37.331-7.471l-13.078,2.194"
      fill="none"
      stroke="#171c61"
      stroke-linecap="round"
      stroke-linejoin="round"
      stroke-width="3.402"
    />
              <path
      id="Path_183"
      data-name="Path 183"
      d="M2833.6,6222.409l2.656-34.262a15.37,15.37,0,0,0-.2-3.194h0a15.337,15.337,0,0,0-17.663-12.589h0a3.935,3.935,0,0,0-3.279,3.705l-1.06,23.731a45.518,45.518,0,0,1-5.89,20.44h0a45.514,45.514,0,0,1-12.377,14.013l-1.362,1.015a45.768,45.768,0,0,1-19.778,8.439h0"
      fill="none"
      stroke="#171c61"
      stroke-linecap="round"
      stroke-linejoin="round"
      stroke-width="3.402"
    />
              <path
      id="Path_184"
      data-name="Path 184"
      d="M2774.258,6249.916l-1.321-7.878a3.9,3.9,0,0,0-4.489-3.2l-8.668,1.454,12.754,76.024,8.667-1.454a3.9,3.9,0,0,0,3.2-4.489l-8.148-48.57"
      fill="none"
      stroke="#171c61"
      stroke-linecap="round"
      stroke-linejoin="round"
      stroke-width="3.402"
    />
              <path
      id="Path_185"
      data-name="Path 185"
      d="M2712.751,6333.413l55.9-9.377a5.105,5.105,0,0,0,4.19-5.88l-13.37-79.7a5.106,5.106,0,0,0-5.88-4.19l-55.9,9.378"
      fill="none"
      stroke="#171c61"
      stroke-linecap="round"
      stroke-linejoin="round"
      stroke-width="3.402"
    />
              <path
      id="Path_186"
      data-name="Path 186"
      d="M2836.464,6163.109l-3-25.865a2.24,2.24,0,0,1,2.308-2.953l10.44,1.07a2.238,2.238,0,0,1,1.956,2.874l-7.438,24.8A2.239,2.239,0,0,1,2836.464,6163.109Z"
      fill="#fff"
      stroke="#171c61"
      stroke-linecap="round"
      stroke-linejoin="round"
      stroke-width="3.402"
    />
              <path
      id="Path_187"
      data-name="Path 187"
      d="M2854.462,6168.17l14.565-26.965a2.238,2.238,0,0,1,3.637-.43l8.071,10.812a2.239,2.239,0,0,1-.586,3.455l-22.636,16.153A2.239,2.239,0,0,1,2854.462,6168.17Z"
      fill="#fff"
      stroke="#171c61"
      stroke-linecap="round"
      stroke-linejoin="round"
      stroke-width="3.402"
    />
              <path
      id="Path_188"
      data-name="Path 188"
      d="M2958.2,6197.21l-2.107-.378a8.162,8.162,0,0,1,2.879-16.069l30.234,5.416-2.011-30.27a11.647,11.647,0,0,1,13.693-11.833,2.987,2.987,0,0,1,2.459,2.84l.606,18.027a34.542,34.542,0,0,0,13.579,26.311l1.026.782a34.763,34.763,0,0,0,14.946,6.574l1.053.188.259-1.441a2.96,2.96,0,0,1,3.435-2.392l6.568,1.177.25-1.394a3.876,3.876,0,0,1,4.5-3.132l42.364,7.589-12.187,68.033-42.364-7.589a3.876,3.876,0,0,1-3.132-4.5l.249-1.394-6.568-1.177a2.96,2.96,0,0,1-2.392-3.435l.491-2.74-10.964-1.965c-5.857-1.049-17.732,7.272-28.406,5.36l-29.763-5.332a7.049,7.049,0,1,1,2.486-13.877l-2.2-.394a8.162,8.162,0,0,1,2.879-16.069l-4.741-.849a8.162,8.162,0,1,1,2.878-16.068Z"
      fill="#fff"
    />
              <line
      id="Line_264"
      data-name="Line 264"
      x2="34.615"
      y2="6.201"
      transform="translate(2958.976 6180.764)"
      fill="none"
      stroke="#171c61"
      stroke-linecap="round"
      stroke-linejoin="round"
      stroke-width="3.402"
    />
              <path
      id="Path_189"
      data-name="Path 189"
      d="M2958.976,6180.764a8.162,8.162,0,1,0-2.879,16.068l23.353,4.183"
      fill="none"
      stroke="#171c61"
      stroke-linecap="round"
      stroke-linejoin="round"
      stroke-width="3.402"
    />
              <path
      id="Path_190"
      data-name="Path 190"
      d="M2952.1,6198.545a8.162,8.162,0,0,0,3.224,14.733l21.245,3.806"
      fill="none"
      stroke="#171c61"
      stroke-linecap="round"
      stroke-linejoin="round"
      stroke-width="3.402"
    />
              <path
      id="Path_191"
      data-name="Path 191"
      d="M2952.77,6216.476a8.163,8.163,0,0,0,4.418,13.72l16.505,2.957"
      fill="none"
      stroke="#171c61"
      stroke-linecap="round"
      stroke-linejoin="round"
      stroke-width="3.402"
    />
              <path
      id="Path_192"
      data-name="Path 192"
      d="M2952.414,6232.283a7.05,7.05,0,0,0,3.564,12.1l19.111,3.423,5.723,1.026,4.928.882c10.674,1.912,22.549-6.408,28.406-5.359l9.911,1.775"
      fill="none"
      stroke="#171c61"
      stroke-linecap="round"
      stroke-linejoin="round"
      stroke-width="3.402"
    />
              <path
      id="Path_193"
      data-name="Path 193"
      d="M2988.928,6181.944l-1.729-26.035a11.729,11.729,0,0,1,.177-2.424h0a11.645,11.645,0,0,1,13.516-9.409h0a2.988,2.988,0,0,1,2.459,2.84l.606,18.027a34.55,34.55,0,0,0,4.3,15.568h0a34.548,34.548,0,0,0,9.279,10.743l1.026.782a34.763,34.763,0,0,0,14.946,6.574h0"
      fill="none"
      stroke="#171c61"
      stroke-linecap="round"
      stroke-linejoin="round"
      stroke-width="3.402"
    />
              <path
      id="Path_194"
      data-name="Path 194"
      d="M3033.75,6203.327l1.07-5.97a2.96,2.96,0,0,1,3.435-2.392l6.568,1.177-10.321,57.614-6.568-1.177a2.959,2.959,0,0,1-2.391-3.435l6.593-36.808"
      fill="none"
      stroke="#171c61"
      stroke-linecap="round"
      stroke-linejoin="round"
      stroke-width="3.402"
    />
              <path
      id="Path_195"
      data-name="Path 195"
      d="M3079.749,6267.238l-42.364-7.589a3.876,3.876,0,0,1-3.132-4.5l10.82-60.4a3.876,3.876,0,0,1,4.5-3.132l42.364,7.589"
      fill="none"
      stroke="#171c61"
      stroke-linecap="round"
      stroke-linejoin="round"
      stroke-width="3.402"
    />
              <path
      id="Path_196"
      data-name="Path 196"
      d="M2993.346,6131.367l-6.132-14.886a1.3,1.3,0,0,1,1.233-1.8l9.549.205a1.3,1.3,0,0,1,1.242,1.6l-3.417,14.681A1.3,1.3,0,0,1,2993.346,6131.367Z"
      fill="#fff"
      stroke="#171c61"
      stroke-linecap="round"
      stroke-linejoin="round"
      stroke-width="3.402"
    />
              <path
      id="Path_197"
      data-name="Path 197"
      d="M3012.683,6137.444l4.91-17.156a1.3,1.3,0,0,1,2.015-.7l8.045,5.789a1.3,1.3,0,0,1,.1,2.038l-12.955,11.367A1.3,1.3,0,0,1,3012.683,6137.444Z"
      fill="#fff"
      stroke="#171c61"
      stroke-linecap="round"
      stroke-linejoin="round"
      stroke-width="3.402"
    />
            </g>
          </svg>
