<svg
  xmlns="http://www.w3.org/2000/svg"
  width="26.397"
  height="26.315"
  viewBox="0 0 26.397 26.315"
>
            <g
    id="Group_427"
    data-name="Group 427"
    transform="translate(-908.115 -201.404)"
  >
              <path
      id="Rectangle_551"
      data-name="Rectangle 551"
      d="M0,0H26.4a0,0,0,0,1,0,0V15.311a.613.613,0,0,1-.613.613H.613A.613.613,0,0,1,0,15.311V0A0,0,0,0,1,0,0Z"
      transform="translate(908.115 211.795)"
      fill="#1a1a1a"
    />
              <g id="Group_426" data-name="Group 426">
                <rect
        id="Rectangle_552"
        data-name="Rectangle 552"
        width="3.017"
        height="6.045"
        rx="0.815"
        transform="translate(913.01 201.404)"
        fill="#1a1a1a"
      />
                <rect
        id="Rectangle_553"
        data-name="Rectangle 553"
        width="3.017"
        height="6.045"
        rx="0.815"
        transform="translate(926.6 201.404)"
        fill="#1a1a1a"
      />
              </g>
              <path
      id="Path_595"
      data-name="Path 595"
      d="M934.512,209.545v-3.292a.613.613,0,0,0-.613-.613H908.728a.613.613,0,0,0-.613.613v3.292Z"
      fill="#1a1a1a"
    />
              <path
      id="Path_596"
      data-name="Path 596"
      d="M916.027,219.757l3.774,3.248,6.8-6.544"
      fill="none"
      stroke="#fff"
      stroke-linecap="round"
      stroke-linejoin="round"
      stroke-width="2.835"
    />
            </g>
          </svg>
