<svg xmlns="http://www.w3.org/2000/svg" width="115.464" height="114.219" viewBox="0 0 115.464 114.219">
  <g id="Group_886" data-name="Group 886" transform="translate(-317.306 -367.727)">
    <g id="Group_885" data-name="Group 885">
      <g id="Group_67" data-name="Group 67" transform="translate(-10200 -4168.666)">
        <g id="Group_64" data-name="Group 64">
          <path id="Path_86" data-name="Path 86" d="M10549.077,4581.758a10.6,10.6,0,0,0,18.249,0" fill="none" stroke="#262626" stroke-linecap="round" stroke-linejoin="round" stroke-width="4.767"/>
        </g>
        <g id="Group_65" data-name="Group 65">
          <path id="Path_87" data-name="Path 87" d="M10581.661,4581.758a10.6,10.6,0,0,0,18.248,0" fill="none" stroke="#262626" stroke-linecap="round" stroke-linejoin="round" stroke-width="4.767"/>
        </g>
        <path id="Path_88" data-name="Path 88" d="M10598.117,4616.642a33.1,33.1,0,0,0-47.4,0" fill="none" stroke="#262626" stroke-linecap="round" stroke-linejoin="round" stroke-width="4.767"/>
        <path id="Path_89" data-name="Path 89" d="M10618.851,4539.542a110.817,110.817,0,0,1,9.736,15.546c4.083,8.165.942,16.33-9.736,16.33s-13.817-8.165-9.735-16.33A110.861,110.861,0,0,1,10618.851,4539.542Z" fill="#fff" stroke="#262626" stroke-linecap="round" stroke-linejoin="round" stroke-width="4.767"/>
        <g id="Group_66" data-name="Group 66">
          <path id="Path_90" data-name="Path 90" d="M10601.555,4545.988a54.715,54.715,0,1,0,26.037,34.589" fill="none" stroke="#262626" stroke-linecap="round" stroke-linejoin="round" stroke-width="4.767"/>
        </g>
      </g>
    </g>
  </g>
</svg>
