<svg xmlns="http://www.w3.org/2000/svg" width="26.397" height="26.316" viewBox="0 0 26.397 26.316">
  <g id="Group_888" data-name="Group 888" transform="translate(-51.497 -629.53)">
    <g id="Group_26" data-name="Group 26" transform="translate(-5100 -9472.404)">
      <path id="Rectangle_9" data-name="Rectangle 9" d="M0,0H26.4a0,0,0,0,1,0,0V15.311a.613.613,0,0,1-.613.613H.613A.613.613,0,0,1,0,15.311V0A0,0,0,0,1,0,0Z" transform="translate(5151.497 10112.326)" fill="#1a1a1a"/>
      <g id="Group_25" data-name="Group 25">
        <rect id="Rectangle_10" data-name="Rectangle 10" width="3.017" height="6.045" rx="0.815" transform="translate(5156.392 10101.935)" fill="#1a1a1a"/>
        <rect id="Rectangle_11" data-name="Rectangle 11" width="3.017" height="6.045" rx="0.815" transform="translate(5169.981 10101.935)" fill="#1a1a1a"/>
      </g>
      <path id="Path_31" data-name="Path 31" d="M5177.894,10110.076v-3.292a.613.613,0,0,0-.613-.613H5152.11a.613.613,0,0,0-.613.613v3.292Z" fill="#1a1a1a"/>
      <path id="Path_32" data-name="Path 32" d="M5159.409,10120.288l3.774,3.248,6.8-6.544" fill="none" stroke="#fff" stroke-linecap="round" stroke-linejoin="round" stroke-width="2.835"/>
    </g>
  </g>
</svg>
