<svg xmlns="http://www.w3.org/2000/svg" width="66.204" height="66.604" viewBox="0 0 66.204 66.604">
  <g id="Group_885" data-name="Group 885" transform="translate(-67.192 -199.59)">
    <g id="Group_343" data-name="Group 343" transform="translate(0 -1672.712)">
      <path id="Path_565" data-name="Path 565" d="M102.421,1901.633h-4.53v-21.712a2.265,2.265,0,0,1,2.265-2.264h0a2.265,2.265,0,0,1,2.265,2.264Z"/>
      <path id="Path_566" data-name="Path 566" d="M115.211,1914.037l-1.482-5.152a7.245,7.245,0,0,0-6.962-5.24H93.545a7.244,7.244,0,0,0-6.962,5.24l-1.483,5.152Z"/>
      <path id="Path_567" data-name="Path 567" d="M115.211,1914.037l5.366,18.642H79.735l5.366-18.642Z"/>
      <line id="Line_441" data-name="Line 441" y1="16.731" transform="translate(100.225 1920.979)" fill="none" stroke="#fff" stroke-linecap="round" stroke-linejoin="round" stroke-width="2.012"/>
      <line id="Line_442" data-name="Line 442" x1="1.204" y2="16.731" transform="translate(94.74 1920.979)" fill="none" stroke="#fff" stroke-linecap="round" stroke-linejoin="round" stroke-width="2.012"/>
      <line id="Line_443" data-name="Line 443" x1="2.408" y2="16.731" transform="translate(89.256 1920.979)" fill="none" stroke="#fff" stroke-linecap="round" stroke-linejoin="round" stroke-width="2.012"/>
      <line id="Line_444" data-name="Line 444" x1="3.612" y2="16.731" transform="translate(83.771 1920.979)" fill="none" stroke="#fff" stroke-linecap="round" stroke-linejoin="round" stroke-width="2.012"/>
      <line id="Line_445" data-name="Line 445" x2="1.204" y2="16.731" transform="translate(104.506 1920.979)" fill="none" stroke="#fff" stroke-linecap="round" stroke-linejoin="round" stroke-width="2.012"/>
      <line id="Line_446" data-name="Line 446" x2="2.408" y2="16.731" transform="translate(108.786 1920.979)" fill="none" stroke="#fff" stroke-linecap="round" stroke-linejoin="round" stroke-width="2.012"/>
      <line id="Line_447" data-name="Line 447" x2="3.612" y2="16.731" transform="translate(113.067 1920.979)" fill="none" stroke="#fff" stroke-linecap="round" stroke-linejoin="round" stroke-width="2.012"/>
      <line id="Line_448" data-name="Line 448" x2="32.123" transform="translate(84.094 1914.037)" fill="none" stroke="#fff" stroke-linecap="round" stroke-linejoin="round" stroke-width="2.012"/>
    </g>
    <rect id="Rectangle_355" data-name="Rectangle 355" width="63.369" height="63.369" rx="3.447" transform="translate(68.609 201.007)" fill="none" stroke="#000" stroke-miterlimit="10" stroke-width="2.835"/>
  </g>
</svg>
