 <svg xmlns="http://www.w3.org/2000/svg" width="22.317" height="21.267" viewBox="0 0 22.317 21.267">
              <g id="Group_99" data-name="Group 99" transform="translate(-6003.536 -6681.097)">
                <path
                  id="Path_135"
                  data-name="Path 135"
                  d="M6015.079,6681.335l3.117,6.315a.428.428,0,0,0,.322.234l6.968,1.012a.429.429,0,0,1,.238.731l-5.042,4.915a.433.433,0,0,0-.124.38l1.191,6.939a.429.429,0,0,1-.622.452l-6.232-3.276a.427.427,0,0,0-.4,0l-6.233,3.276a.429.429,0,0,1-.622-.452l1.191-6.939a.43.43,0,0,0-.123-.38l-5.043-4.915a.429.429,0,0,1,.238-.731l6.968-1.012a.429.429,0,0,0,.323-.234l3.116-6.315A.429.429,0,0,1,6015.079,6681.335Z"
                  fill="#1a1a1a"
                />
              </g>
            </svg>