<svg
  xmlns="http://www.w3.org/2000/svg"
  width="40.426"
  height="33.652"
  viewBox="0 0 40.426 33.652"
>
  <g
    id="Group_262"
    data-name="Group 262"
    transform="translate(-4015.205 -868.711)"
  >
    <path
      id="Path_298"
      data-name="Path 298"
      d="M4035.418,875.14c-9.358,0-17.189,7.193-20.213,10.4,3.024,3.2,10.855,10.4,20.213,10.4s17.19-7.193,20.213-10.4C4052.608,882.333,4044.777,875.14,4035.418,875.14Zm0,19.256a8.859,8.859,0,1,1,8.859-8.859A8.858,8.858,0,0,1,4035.418,894.4Z"
    />
    <g id="Group_261" data-name="Group 261">
      <path
        id="Path_299"
        data-name="Path 299"
        d="M4035.418,882.343a3.171,3.171,0,0,1,.772-2.06,5.313,5.313,0,1,0,4.545,5.254,5.447,5.447,0,0,0-.062-.771,3.179,3.179,0,0,1-5.255-2.423Z"
      />
    </g>
  </g>
  <line
    id="Line_428"
    data-name="Line 428"
    x2="18.633"
    y2="30.732"
    transform="translate(9.897 1.46)"
    fill="none"
    stroke="#000"
    stroke-linecap="round"
    stroke-linejoin="round"
    stroke-width="2.126"
  />
</svg>
