<svg
  xmlns="http://www.w3.org/2000/svg"
  xmlns:xlink="http://www.w3.org/1999/xlink"
  width="624.119"
  height="47.546"
  viewBox="0 0 624.119 47.546"
>
  <defs>
    <linearGradient
      id="linear-gradient"
      x1="-331.155"
      y1="2238.696"
      x2="-330.923"
      y2="2238.696"
      gradientUnits="objectBoundingBox"
    >
      <stop offset="0" stop-color="#007940" />
      <stop offset="0.229" stop-color="#00863f" />
      <stop offset="0.743" stop-color="#40a637" />
      <stop offset="1" stop-color="#5cb431" />
    </linearGradient>
    <linearGradient
      id="linear-gradient-2"
      x1="-114.131"
      y1="197.527"
      x2="-114.051"
      y2="197.527"
      xlink:href="#linear-gradient"
    />
    <linearGradient
      id="linear-gradient-3"
      x1="-361.483"
      y1="2444.042"
      x2="-361.23"
      y2="2444.042"
      xlink:href="#linear-gradient"
    />
    <linearGradient
      id="linear-gradient-4"
      x1="-112.069"
      y1="197.711"
      x2="-111.988"
      y2="197.711"
      gradientUnits="objectBoundingBox"
    >
      <stop offset="0" stop-color="#1f286f" />
      <stop offset="0.475" stop-color="#004e93" />
      <stop offset="0.826" stop-color="#0066b0" />
      <stop offset="1" stop-color="#006fbb" />
    </linearGradient>
    <linearGradient
      id="linear-gradient-5"
      x1="-113.102"
      y1="197.347"
      x2="-113.024"
      y2="197.347"
      gradientUnits="objectBoundingBox"
    >
      <stop offset="0" stop-color="#6c2c2f" />
      <stop offset="0.173" stop-color="#872730" />
      <stop offset="0.573" stop-color="#bd1833" />
      <stop offset="0.859" stop-color="#db0436" />
      <stop offset="1" stop-color="#e50039" />
    </linearGradient>
    <linearGradient
      id="linear-gradient-6"
      x1="0.756"
      y1="1256.683"
      x2="0.41"
      y2="1256.142"
      gradientUnits="objectBoundingBox"
    >
      <stop offset="0" stop-color="#f79e20" />
      <stop offset="0.25" stop-color="#f69920" />
      <stop offset="0.533" stop-color="#f58c20" />
      <stop offset="0.62" stop-color="#f48620" />
      <stop offset="0.723" stop-color="#f38020" />
      <stop offset="1" stop-color="#f27521" />
    </linearGradient>
    <linearGradient
      id="linear-gradient-7"
      x1="0.701"
      y1="1256.676"
      x2="0.196"
      y2="1255.689"
      gradientUnits="objectBoundingBox"
    >
      <stop offset="0" stop-color="#f48620" />
      <stop offset="0.359" stop-color="#e06f27" />
      <stop offset="0.703" stop-color="#d3602c" />
      <stop offset="0.982" stop-color="#cf5b2e" />
    </linearGradient>
  </defs>
  <g id="Group_210" data-name="Group 210" transform="translate(-1762.827 -4520.158)">
    <g id="Group_209" data-name="Group 209">
      <path
        id="Path_369"
        data-name="Path 369"
        d="M1803.431,4558.617h-7.643l4.777-29.355h7.643Zm-14.073-29.355-7.286,20.191-.862-4.348v0l-2.572-13.2s-.311-2.643-3.625-2.643h-12.046l-.141.5a28.623,28.623,0,0,1,7.994,3.355l6.64,25.5h7.963l12.16-29.356Zm60.114,29.355h7.018l-6.119-29.356h-6.143a3.512,3.512,0,0,0-3.528,2.188l-11.4,27.168h7.967l1.593-4.36h9.716l.9,4.36Zm-8.41-10.384,4.016-10.985,2.259,10.985Zm-11.163-11.912,1.09-6.3a22.051,22.051,0,0,0-6.874-1.28c-3.792,0-12.8,1.657-12.8,9.718,0,7.583,10.571,7.678,10.571,11.661s-9.482,3.27-12.611.758l-1.136,6.591a21.406,21.406,0,0,0,8.626,1.658c5.216,0,13.084-2.7,13.084-10.05,0-7.633-10.666-8.344-10.666-11.662s7.444-2.893,10.715-1.091Z"
        fill="#2566ae"
      />
    </g>
    <path
      id="Path_370"
      data-name="Path 370"
      d="M1781.211,4545.106l-2.572-13.2s-.311-2.643-3.625-2.643h-12.046l-.141.5a29.618,29.618,0,0,1,11.343,5.7A22.9,22.9,0,0,1,1781.211,4545.106Z"
      fill="#e5a440"
    />
  </g>
  <g id="Group_211" data-name="Group 211" transform="translate(-1762.827 -4520.158)">
    <path
      id="Path_371"
      data-name="Path 371"
      d="M1913.657,4543.931a22.538,22.538,0,0,1,8.6-17.731,22.584,22.584,0,1,0,0,35.461A22.538,22.538,0,0,1,1913.657,4543.931Z"
      fill="#ea001b"
    />
    <path
      id="Path_372"
      data-name="Path 372"
      d="M1936.241,4521.346a22.483,22.483,0,0,0-13.98,4.854,22.569,22.569,0,0,1,0,35.461,22.582,22.582,0,1,0,13.98-40.315Z"
      fill="#f69d1b"
    />
    <ellipse
      id="Ellipse_95"
      data-name="Ellipse 95"
      cx="8.605"
      cy="17.73"
      rx="8.605"
      ry="17.73"
      transform="translate(1913.656 4526.2)"
      fill="#ff5f00"
    />
  </g>
  <g id="Group_212" data-name="Group 212" transform="translate(-1762.827 -4520.158)">
    <path
      id="Path_373"
      data-name="Path 373"
      d="M2033.366,4548.77h4.343c.124,0,.414-.041.538-.041a1.939,1.939,0,0,0,1.531-1.944,2.008,2.008,0,0,0-1.531-1.944,2.152,2.152,0,0,0-.538-.042h-4.343Z"
      fill="url(#linear-gradient)"
    />
    <path
      id="Path_374"
      data-name="Path 374"
      d="M2037.213,4521.346a7.529,7.529,0,0,0-7.528,7.529v7.817h10.63a4.2,4.2,0,0,1,.745.042c2.4.124,4.177,1.365,4.177,3.515,0,1.7-1.2,3.144-3.433,3.434v.082c2.441.166,4.3,1.531,4.3,3.64,0,2.275-2.068,3.764-4.8,3.764h-11.664v15.305h11.044a7.53,7.53,0,0,0,7.528-7.528v-37.6Z"
      fill="url(#linear-gradient-2)"
    />
    <path
      id="Path_375"
      data-name="Path 375"
      d="M2039.24,4540.746a1.76,1.76,0,0,0-1.531-1.779c-.082,0-.289-.041-.413-.041h-3.93v3.64h3.93a1.132,1.132,0,0,0,.413-.042,1.759,1.759,0,0,0,1.531-1.778Z"
      fill="url(#linear-gradient-3)"
    />
    <path
      id="Path_376"
      data-name="Path 376"
      d="M1995.6,4521.346a7.529,7.529,0,0,0-7.528,7.529v18.572a14.88,14.88,0,0,0,6.494,1.7c2.6,0,4.012-1.571,4.012-3.722v-8.769h6.452v8.727c0,3.392-2.109,6.164-9.265,6.164a31.731,31.731,0,0,1-7.735-.952v15.842h11.044a7.529,7.529,0,0,0,7.528-7.528v-37.558Z"
      fill="url(#linear-gradient-4)"
    />
    <path
      id="Path_377"
      data-name="Path 377"
      d="M2016.407,4521.346a7.529,7.529,0,0,0-7.528,7.529v9.844c1.9-1.613,5.212-2.647,10.548-2.4a33.552,33.552,0,0,1,5.915.91v3.185a14.33,14.33,0,0,0-5.708-1.655c-4.054-.289-6.494,1.7-6.494,5.171,0,3.516,2.44,5.5,6.494,5.17a15.03,15.03,0,0,0,5.708-1.654v3.185a32.859,32.859,0,0,1-5.915.91c-5.336.248-8.645-.786-10.548-2.4v17.373h11.044a7.528,7.528,0,0,0,7.528-7.528v-37.641Z"
      fill="url(#linear-gradient-5)"
    />
  </g>
  <path
    id="Path_378"
    data-name="Path 378"
    d="M2184.779,4550.969h-3.24a1.138,1.138,0,0,1-1.229-1.006c0-.67.559-1,1.229-1h5.921l1.34-3.016h-7.261c-3.016,0-4.692,1.787-4.692,4.133,0,2.458,1.676,3.91,4.245,3.91h3.24a1.138,1.138,0,0,1,1.229,1.005c0,.559-.447,1.006-1.229,1.006h-7.15v3.016h7.15c3.016,0,4.692-1.787,4.692-4.245s-1.564-3.8-4.245-3.8m-13.071,0h-3.239a1.137,1.137,0,0,1-1.229-1.006c0-.67.558-1,1.229-1h5.92l1.341-3.016h-7.261c-3.017,0-4.692,1.787-4.692,4.133,0,2.458,1.675,3.91,4.245,3.91h3.24a1.137,1.137,0,0,1,1.228,1.005c0,.559-.447,1.006-1.228,1.006h-7.15v3.016h7.15c3.016,0,4.691-1.787,4.691-4.245.112-2.458-1.452-3.8-4.245-3.8m-20.667,8.155h11.172v-3.017h-7.6v-2.122h7.485v-3.016h-7.485v-2.123h7.6v-3.016h-11.172Zm-6.926-7.6h-3.686v-2.681h3.686a1.421,1.421,0,0,1,1.564,1.341c0,.782-.558,1.34-1.564,1.34m5.139-1.452c0-2.569-1.787-4.245-4.692-4.245h-7.708v13.294h3.575v-4.581h1.34l4.022,4.581h4.245l-4.357-4.8a4.286,4.286,0,0,0,3.575-4.245m-19.1,1.676h-3.8v-2.9h3.8a1.439,1.439,0,0,1,1.564,1.452,1.382,1.382,0,0,1-1.564,1.453m.447-5.921h-7.708v13.294h3.575v-4.357h4.133c3.016,0,4.8-1.9,4.8-4.469a4.436,4.436,0,0,0-4.8-4.468m-8.379,0h-4.58l-3.351,4.022-3.463-4.022h-4.692l5.921,6.591-6.033,6.7h4.58l3.575-4.245,3.575,4.245h4.692l-6.033-6.815Zm-27.816,13.294h11.171v-3.017h-7.708v-2.122h7.485v-3.016h-7.485v-2.123h7.708v-3.016H2094.4Zm89.035-22.231-5.474-8.044H2173.5v13.183h3.575v-8.379l5.585,8.379h4.245v-13.183h-3.463Zm-20.555-.447,1.9-4.469,1.9,4.469Zm-.447-7.6-5.809,13.294h3.91l1.117-2.681h6.144l1.118,2.681h4.021l-5.921-13.294Zm-11.618,6.7v-.223a3.056,3.056,0,0,1,3.351-3.352h3.91v-3.239h-4.245c-4.357,0-6.591,2.793-6.591,6.479v.224c0,4.133,2.57,6.479,6.48,6.479h1.228l1.453-3.016h-2.123a3.041,3.041,0,0,1-3.463-3.352m-8.937-6.7v13.183h3.575v-13.183Zm-6.926,5.586h-3.687v-2.681h3.687a1.422,1.422,0,0,1,1.564,1.341c0,.782-.559,1.34-1.564,1.34m5.139-1.34c0-2.57-1.788-4.246-4.692-4.246h-7.709v13.294h3.575v-4.692h1.341l4.021,4.581h4.357l-4.468-4.8a4.175,4.175,0,0,0,3.575-4.133m-25.918,8.937h11.171v-3.017h-7.6v-2.122h7.373v-3.016h-7.373v-2.123h7.6v-2.9h-11.171Zm-11.283-4.916-3.016-8.267H2094.4v13.183h3.463v-9.5l3.463,9.5h3.128l3.463-9.5v9.5h3.575v-13.183h-5.586Zm-19.215-.67,1.9-4.469,1.9,4.469Zm-.446-7.6-5.81,13.183h3.91l1.118-2.682h6.144l1.117,2.682h4.022l-5.921-13.183Z"
    transform="translate(-1762.827 -4520.158)"
    fill="#006fce"
  />
  <g id="Group_213" data-name="Group 213" transform="translate(-1762.827 -4520.158)">
    <path
      id="Path_379"
      data-name="Path 379"
      d="M2255.524,4547.717c7.533.036,14.409-6.143,14.409-13.66,0-8.22-6.876-13.9-14.409-13.9h-6.484a13.593,13.593,0,0,0-13.9,13.9,13.808,13.808,0,0,0,13.9,13.66Z"
      fill="#004a98"
    />
    <path
      id="Path_380"
      data-name="Path 380"
      d="M2251.932,4541.377V4526.45a7.991,7.991,0,0,1,0,14.927m-10.856-7.464a8.009,8.009,0,0,1,5.132-7.463v14.924a8.005,8.005,0,0,1-5.132-7.461m8-12.616a12.615,12.615,0,1,0,12.615,12.616,12.615,12.615,0,0,0-12.615-12.616"
      fill="#fff"
    />
    <path
      id="Path_381"
      data-name="Path 381"
      d="M2221.049,4557.121c0,1.122.8,1.253,1.515,1.253,3.148,0,4.182-2.374,4.182-4.546a4.378,4.378,0,0,0-4.56-4.69c-.6,0-.874.042-1.137.058Zm-1.428-6.834c0-1.31-.684-1.224-1.339-1.237v-.379c.568.028,1.15.028,1.719.028.612,0,1.442-.028,2.521-.028,3.773,0,5.827,2.519,5.827,5.1,0,1.443-.845,5.071-6,5.071-.742,0-1.428-.029-2.112-.029-.655,0-1.3.014-1.952.029v-.379c.873-.088,1.3-.117,1.339-1.108Z"
      fill="#231815"
    />
    <path
      id="Path_382"
      data-name="Path 382"
      d="M2230.419,4549.939a.715.715,0,0,1,0-1.429.713.713,0,0,1,.714.7.729.729,0,0,1-.714.729m-1.559,8.523h.277c.407,0,.7,0,.7-.482v-3.947c0-.641-.218-.73-.757-1.02v-.233c.684-.2,1.5-.481,1.558-.524a.511.511,0,0,1,.263-.074c.072,0,.1.088.1.205v5.593c0,.482.321.482.729.482h.247v.379c-.5,0-1.006-.029-1.529-.029s-1.049.014-1.588.029Z"
      fill="#231815"
    />
    <path
      id="Path_383"
      data-name="Path 383"
      d="M2233.362,4554.12c0-.539-.161-.684-.845-.961v-.277a19.752,19.752,0,0,0,1.923-.7c.043,0,.086.03.086.145v.948a4.275,4.275,0,0,1,2.523-1.093c1.238,0,1.675.9,1.675,2.04v3.758c0,.482.32.482.728.482h.263v.379c-.512,0-1.021-.029-1.544-.029s-1.05.014-1.575.029v-.379h.262c.409,0,.7,0,.7-.482v-3.772c0-.831-.508-1.239-1.339-1.239a3.885,3.885,0,0,0-1.692.7v4.311c0,.482.322.482.73.482h.262v.379c-.509,0-1.02-.029-1.545-.029s-1.049.014-1.573.029v-.379h.263c.408,0,.7,0,.7-.482Z"
      fill="#231815"
    />
    <path
      id="Path_384"
      data-name="Path 384"
      d="M2243.4,4554.353c.364,0,.406-.189.406-.364a1.235,1.235,0,0,0-1.268-1.34c-.888,0-1.5.654-1.674,1.7Zm-2.579.467a3.452,3.452,0,0,0,0,.845,2.432,2.432,0,0,0,2.14,2.52,2.79,2.79,0,0,0,1.968-.976l.2.2a3.415,3.415,0,0,1-2.694,1.647c-2.318,0-2.784-2.244-2.784-3.177,0-2.856,1.923-3.7,2.942-3.7a2.313,2.313,0,0,1,2.463,2.287,1.8,1.8,0,0,1-.013.264l-.132.087Z"
      fill="#231815"
    />
    <path
      id="Path_385"
      data-name="Path 385"
      d="M2245.4,4558.462h.394c.406,0,.7,0,.7-.482v-4.093c0-.451-.539-.539-.758-.656v-.218c1.064-.452,1.647-.831,1.78-.831.085,0,.129.044.129.19v1.311h.031c.363-.568.976-1.5,1.864-1.5a.8.8,0,0,1,.831.772.708.708,0,0,1-.685.744c-.453,0-.453-.35-.962-.35a1.23,1.23,0,0,0-1.064,1.21v3.422c0,.482.291.482.7.482h.816v.379c-.8-.015-1.412-.029-2.039-.029-.6,0-1.209.014-1.734.029Z"
      fill="#231815"
    />
    <path
      id="Path_386"
      data-name="Path 386"
      d="M2251.006,4556.816a1.919,1.919,0,0,0,1.837,1.777,1.028,1.028,0,0,0,1.178-1.034c0-1.719-3.175-1.166-3.175-3.511a2,2,0,0,1,2.259-1.866,3.838,3.838,0,0,1,1.66.423l.1,1.485h-.335a1.5,1.5,0,0,0-1.588-1.441,1.024,1.024,0,0,0-1.136.961c0,1.706,3.38,1.18,3.38,3.468,0,.961-.772,1.982-2.507,1.982a3.842,3.842,0,0,1-1.777-.5l-.16-1.676Z"
      fill="#231815"
    />
    <path
      id="Path_387"
      data-name="Path 387"
      d="M2268.344,4551.308h-.363c-.278-1.7-1.487-2.389-3.118-2.389-1.677,0-4.11,1.121-4.11,4.618,0,2.944,2.1,5.056,4.342,5.056a2.963,2.963,0,0,0,2.93-2.521l.334.087-.334,2.128a8.165,8.165,0,0,1-3.221.773,5.186,5.186,0,0,1-5.565-5.479,5.357,5.357,0,0,1,5.521-5.13,10.5,10.5,0,0,1,3.439.774Z"
      fill="#231815"
    />
    <path
      id="Path_388"
      data-name="Path 388"
      d="M2268.87,4558.462h.275c.409,0,.7,0,.7-.482v-8.114c0-.947-.218-.977-.772-1.137v-.233a9.225,9.225,0,0,0,1.5-.627,1.59,1.59,0,0,1,.32-.16c.088,0,.118.088.118.2v10.067c0,.482.32.482.729.482h.246v.379c-.494,0-1.005-.029-1.529-.029s-1.049.014-1.588.029Z"
      fill="#231815"
    />
    <path
      id="Path_389"
      data-name="Path 389"
      d="M2278.225,4558.039c0,.263.159.277.407.277.175,0,.393-.014.583-.014v.307a14.916,14.916,0,0,0-2.1.451l-.073-.044v-1.18a3.931,3.931,0,0,1-2.58,1.224,1.571,1.571,0,0,1-1.6-1.733V4553.6c0-.379-.058-.744-.872-.816v-.277c.524-.015,1.688-.1,1.878-.1.161,0,.161.1.161.423v3.758c0,.438,0,1.69,1.267,1.69a3.254,3.254,0,0,0,1.762-.887v-3.921c0-.291-.7-.45-1.222-.6v-.263c1.31-.088,2.127-.2,2.272-.2.118,0,.118.1.118.263Z"
      fill="#231815"
    />
    <path
      id="Path_390"
      data-name="Path 390"
      d="M2281.123,4557.194a1.568,1.568,0,0,0,1.5,1.487c1.559,0,2.214-1.53,2.214-2.828a2.778,2.778,0,0,0-2.33-2.884,2.25,2.25,0,0,0-1.385.686Zm0-3.963a3.685,3.685,0,0,1,2.172-1.049,2.836,2.836,0,0,1,2.709,3.06,3.68,3.68,0,0,1-3.483,3.818,4.3,4.3,0,0,1-2.025-.51l-.436.334-.305-.159a17.248,17.248,0,0,0,.2-2.594v-6.265c0-.948-.219-.977-.773-1.137v-.233a9.175,9.175,0,0,0,1.5-.627,1.531,1.531,0,0,1,.321-.16c.088,0,.116.088.116.2Z"
      fill="#231815"
    />
    <path
      id="Path_391"
      data-name="Path 391"
      d="M2218.265,4567.312h.112c.285,0,.586-.039.586-.451v-4.153c0-.414-.3-.453-.586-.453h-.112v-.238c.31,0,.785.031,1.175.031s.871-.031,1.243-.031v.238h-.111c-.284,0-.586.039-.586.453v4.153c0,.412.3.451.586.451h.111v.24c-.38,0-.857-.032-1.252-.032s-.856.032-1.166.032Z"
      fill="#231815"
    />
    <path
      id="Path_392"
      data-name="Path 392"
      d="M2220.649,4567.517v-.169h-.077c-.283,0-.621-.049-.622-.487v-4.153c0-.439.339-.488.622-.488h.076v-.168c-.366,0-.825.031-1.209.031s-.833-.03-1.14-.031v.168h.076c.283,0,.62.049.62.488v4.153c0,.438-.337.487-.62.487h-.076v.169c.307,0,.755-.032,1.131-.032s.844.03,1.218.032m.035.068c-.384,0-.858-.032-1.253-.032s-.855.032-1.166.032h-.034v-.307h.145c.288-.006.549-.029.552-.417v-4.153c0-.388-.264-.414-.552-.419h-.145v-.307h.034c.311,0,.787.032,1.175.032s.869-.032,1.244-.032h.035v.307h-.146c-.288,0-.551.031-.553.419v4.153c0,.388.265.411.553.417h.146v.307Z"
      fill="#231815"
    />
    <path
      id="Path_393"
      data-name="Path 393"
      d="M2226.13,4565.989l.016-.016V4563a.655.655,0,0,0-.69-.746h-.175v-.238c.373,0,.738.031,1.11.031.325,0,.651-.031.975-.031v.238h-.118c-.334,0-.706.063-.706,1.007v3.608a5.248,5.248,0,0,0,.047.8h-.3l-4.083-4.551v3.267c0,.689.134.926.745.926h.135v.239c-.341,0-.681-.031-1.023-.031s-.721.031-1.078.031v-.239h.111c.547,0,.713-.371.713-1v-3.34a.71.71,0,0,0-.72-.712h-.1v-.238c.3,0,.611.031.911.031.238,0,.469-.031.706-.031Z"
      fill="#231815"
    />
    <path
      id="Path_394"
      data-name="Path 394"
      d="M2226.112,4565.972v0l-.007-.006Zm.018.017.025-.023Zm.158,1.646h.262a5.24,5.24,0,0,1-.042-.765v-3.608c0-.951.4-1.042.74-1.042h.084v-.168c-.313,0-.626.031-.941.031-.362,0-.716-.03-1.074-.031v.168h.14a.693.693,0,0,1,.724.781l-.01,3-.016.016-.027.025-3.526-3.986c-.235,0-.465.031-.706.031-.291,0-.589-.03-.876-.031v.168h.07a.746.746,0,0,1,.754.748v3.339c0,.634-.177,1.039-.747,1.042l-.076,0v.171c.344,0,.7-.032,1.043-.032s.661.029.988.032v-.168h-.1c-.624,0-.778-.274-.779-.963v-3.357Zm.3.069-.327-.012-4.023-4.484v3.178c.009.689.114.885.711.892h.17v.307h-.036c-.342,0-.684-.032-1.022-.032-.355,0-.719.032-1.078.032h-.035v-.307h.146c.524,0,.674-.339.68-.971v-3.339a.679.679,0,0,0-.687-.679h-.139v-.306h.035c.3,0,.613.031.911.031.236,0,.465-.031.732-.019l3.485,3.922V4563c-.005-.631-.425-.707-.656-.712h-.21v-.306h.035c.374,0,.74.031,1.11.031.323,0,.648-.031.976-.031h.034v.306h-.153c-.327.009-.663.038-.672.973v3.608a5.147,5.147,0,0,0,.047.794l.007.04Z"
      fill="#231815"
    />
    <path
      id="Path_395"
      data-name="Path 395"
      d="M2228.554,4562.413c-.595,0-.618.143-.737.721h-.238c.032-.221.071-.443.1-.674a4.82,4.82,0,0,0,.047-.672h.19c.064.237.262.229.477.229h4.089c.215,0,.413-.007.429-.246l.19.032c-.031.214-.063.428-.087.642s-.015.429-.015.642l-.238.088c-.017-.293-.056-.762-.587-.762h-1.3v4.218c0,.612.278.681.657.681h.151v.239c-.309,0-.864-.031-1.292-.031-.475,0-1.031.031-1.341.031v-.239h.152c.437,0,.657-.039.657-.664v-4.235Z"
      fill="#231815"
    />
    <path
      id="Path_396"
      data-name="Path 396"
      d="M2231.679,4567.585c-.312,0-.866-.032-1.293-.032-.475,0-1.029.032-1.34.032h-.034v-.307h.185c.437-.01.612-.015.622-.63v-4.2h-1.265v-.07h1.334v4.27c0,.636-.256.7-.691.7h-.117v.167c.313,0,.846-.031,1.306-.031.414,0,.944.029,1.257.031v-.167h-.116c-.383,0-.691-.1-.691-.718v-4.253h1.334c.532,0,.6.454.619.748l.171-.063c0-.206,0-.414.016-.622s.052-.406.082-.609l-.121-.02c-.037.23-.26.242-.459.24h-4.13c-.186,0-.39-.009-.461-.231h-.131a4.743,4.743,0,0,1-.047.644c-.023.217-.06.427-.089.636h.17c.1-.552.172-.731.764-.723v.07c-.587.01-.574.109-.7.695l-.006.027h-.306l0-.041c.032-.222.072-.444.1-.674a4.441,4.441,0,0,0,.048-.667v-.036h.251l.006.026c.054.2.2.2.4.2h4.13c.22,0,.382-.006.4-.214l0-.037.036.007.224.036-.006.034c-.031.213-.062.427-.086.64s-.015.425-.015.639v.024l-.023.009-.28.1,0-.047c-.021-.3-.052-.728-.553-.728h-1.265v4.183c.007.6.244.64.622.647h.186v.307Z"
      fill="#231815"
    />
    <path
      id="Path_397"
      data-name="Path 397"
      d="M2233.35,4567.312h.111c.286,0,.587-.039.587-.451v-4.153c0-.414-.3-.453-.587-.453h-.111v-.238c.482,0,1.309.031,1.973.031s1.491-.031,2.029-.031c-.013.34-.005.865.018,1.213l-.239.064c-.038-.515-.133-.927-.966-.927h-1.1v2.076h.942c.475,0,.579-.269.626-.7h.238c-.016.31-.024.619-.024.928s.008.6.024.9l-.238.047c-.047-.475-.071-.784-.619-.784h-.949v1.847c0,.515.458.515.965.515.952,0,1.372-.064,1.61-.967l.222.055c-.1.421-.2.84-.269,1.262-.508,0-1.42-.032-2.132-.032s-1.658.032-2.11.032Z"
      fill="#231815"
    />
    <path
      id="Path_398"
      data-name="Path 398"
      d="M2237.562,4567.516c.069-.4.16-.8.257-1.2l-.157-.04c-.237.888-.7.967-1.633.961-.5,0-1,0-1-.55v-1.882h.985c.554-.006.61.328.649.779l.172-.036c-.015-.291-.023-.584-.023-.875s.008-.595.023-.894h-.172c-.044.414-.173.7-.656.7h-.978v-2.146h1.137c.825-.006.961.42,1,.918l.171-.045c-.013-.224-.022-.511-.022-.776,0-.136,0-.264.007-.376-.539,0-1.342.031-1.994.031s-1.453-.03-1.939-.031v.168h.077c.283,0,.62.049.622.488v4.153c0,.438-.339.485-.622.488h-.077v.167c.462,0,1.378-.031,2.075-.031s1.592.03,2.1.031m.029.069c-.509,0-1.42-.033-2.132-.033s-1.657.033-2.109.033h-.034v-.307h.145c.288,0,.548-.029.552-.417v-4.153c0-.388-.264-.413-.552-.419h-.145v-.306h.034c.484,0,1.309.031,1.973.031s1.49-.031,2.029-.031h.036v.035c-.006.12-.009.261-.009.41,0,.274.009.573.025.8v.029l-.026.008-.278.073,0-.041c-.047-.514-.116-.888-.932-.9H2235.1v2.006h.91c.456,0,.538-.238.592-.665l0-.032h.3v.037c-.015.308-.025.617-.025.926s.01.6.025.9v.028l-.029.006-.275.055,0-.037c-.055-.484-.058-.749-.585-.755h-.917v1.814c0,.481.417.478.933.481.955-.006,1.338-.053,1.576-.943l.009-.031.033.006.254.065-.007.033c-.1.419-.2.839-.269,1.259l-.006.028Z"
      fill="#231815"
    />
    <path
      id="Path_399"
      data-name="Path 399"
      d="M2239.946,4564.7h.387c.794,0,1.221-.3,1.221-1.237a1.081,1.081,0,0,0-1.158-1.156,4.164,4.164,0,0,0-.45.031Zm-1.015-1.839c0-.578-.317-.6-.564-.6h-.142v-.238c.253,0,.745.031,1.229.031s.855-.031,1.276-.031c1,0,1.887.269,1.887,1.4a1.5,1.5,0,0,1-1.1,1.4l1.355,2.027a.879.879,0,0,0,.77.476v.239c-.262,0-.516-.031-.777-.031s-.5.031-.745.031a21.926,21.926,0,0,1-1.65-2.57h-.522v1.7c0,.611.285.633.648.633h.144v.239c-.453,0-.911-.031-1.364-.031-.381,0-.753.031-1.149.031v-.239h.142c.3,0,.564-.133.564-.427Z"
      fill="#231815"
    />
    <path
      id="Path_400"
      data-name="Path 400"
      d="M2240.333,4564.662c.785-.007,1.18-.279,1.188-1.2a1.05,1.05,0,0,0-1.125-1.125,3.273,3.273,0,0,0-.417.029v2.3Zm-.388.068h-.034V4562.3l.03,0a3.748,3.748,0,0,1,.455-.031,1.12,1.12,0,0,1,1.193,1.192c0,.946-.456,1.268-1.256,1.269Zm0,.218h.542l.01.017a24.386,24.386,0,0,0,1.621,2.552c.242,0,.5-.032.743-.032s.5.027.744.031v-.174a.907.907,0,0,1-.763-.486l-1.38-2.064.04-.016a1.46,1.46,0,0,0,1.08-1.364c0-1.1-.856-1.356-1.852-1.36-.418,0-.8.031-1.276.031s-.936-.03-1.2-.031v.168h.11c.246,0,.6.041.6.637v4.028c0,.319-.3.463-.6.464h-.11v.167c.382,0,.743-.031,1.115-.031.444,0,.891.03,1.33.031v-.167h-.108c-.362,0-.684-.045-.684-.671v-1.73Zm3.695,2.637c-.266,0-.518-.032-.779-.032-.242,0-.5.032-.771.019a21.97,21.97,0,0,1-1.642-2.555h-.469v1.661c.009.6.249.592.616.6h.177v.307h-.035c-.454,0-.914-.032-1.364-.032-.378,0-.75.032-1.149.032h-.034v-.307h.178c.285,0,.526-.126.527-.393v-4.028c-.006-.562-.281-.56-.527-.568h-.178v-.307h.034c.257,0,.747.031,1.23.031s.853-.031,1.276-.031c1,0,1.919.278,1.922,1.43a1.52,1.52,0,0,1-1.085,1.412l1.332,1.994a.847.847,0,0,0,.745.46l.029.005v.3Z"
      fill="#231815"
    />
    <path
      id="Path_401"
      data-name="Path 401"
      d="M2249.022,4565.989l.014-.016V4563a.653.653,0,0,0-.688-.746h-.174v-.238c.372,0,.736.031,1.11.031.325,0,.648-.031.976-.031v.238h-.12c-.333,0-.706.063-.706,1.007v3.608a5.249,5.249,0,0,0,.047.8h-.3l-4.082-4.551v3.267c0,.689.134.926.745.926h.135v.239c-.341,0-.682-.031-1.022-.031-.358,0-.723.031-1.079.031v-.239h.11c.547,0,.714-.371.714-1v-3.34a.711.711,0,0,0-.721-.712h-.1v-.238c.3,0,.611.031.911.031.237,0,.468-.031.706-.031Z"
      fill="#231815"
    />
    <path
      id="Path_402"
      data-name="Path 402"
      d="M2249,4565.973v0l0-.005Zm.02.016.025-.023Zm.158,1.646h.261a5.409,5.409,0,0,1-.042-.765v-3.608c0-.951.4-1.04.741-1.042h.083v-.168c-.311,0-.625.031-.94.031-.364,0-.717-.03-1.076-.031v.168h.141a.694.694,0,0,1,.724.78l-.011,3-.015.017-.025.025-3.528-3.987c-.235,0-.465.031-.7.031-.3,0-.59-.03-.88-.031v.168h.071a.746.746,0,0,1,.754.747v3.338c0,.637-.178,1.041-.747,1.044h-.078v.168c.344,0,.7-.031,1.045-.031.332,0,.662.029.989.031v-.167h-.1c-.624,0-.78-.274-.782-.964v-3.354Zm.3.069-.326-.011-4.024-4.485v3.177c.01.69.114.886.712.893h.168v.307h-.034c-.343,0-.683-.033-1.023-.033s-.72.033-1.077.033h-.036v-.307h.146c.523,0,.674-.339.679-.973v-3.338a.677.677,0,0,0-.686-.678h-.139v-.307h.036c.3,0,.612.032.912.032.232,0,.462-.032.728-.021l3.485,3.924V4563c0-.63-.424-.708-.654-.711h-.21v-.307h.035c.374,0,.74.032,1.11.032.323,0,.648-.032.975-.032h.035v.307h-.153c-.327.008-.664.038-.672.973v3.608a5.086,5.086,0,0,0,.047.795l0,.039Z"
      fill="#231815"
    />
    <path
      id="Path_403"
      data-name="Path 403"
      d="M2252.691,4562.9h-.016l-.737,2.244h1.482Zm-1.157,3.512a3.232,3.232,0,0,0-.176.618c0,.238.334.277.595.277h.088v.239c-.318-.016-.642-.031-.96-.031-.285,0-.569.015-.856.031v-.239h.048a.716.716,0,0,0,.688-.515l1.27-3.638a6.531,6.531,0,0,0,.294-.984,4.032,4.032,0,0,0,.721-.34.168.168,0,0,1,.064-.017.053.053,0,0,1,.055.025c.024.063.047.135.072.2l1.459,4.146c.095.278.189.571.292.81a.5.5,0,0,0,.524.315h.047v.239c-.356-.016-.714-.031-1.093-.031s-.786.015-1.19.031v-.239h.087c.182,0,.492-.031.492-.229a2.5,2.5,0,0,0-.16-.571l-.308-.919h-1.8Z"
      fill="#231815"
    />
    <path
      id="Path_404"
      data-name="Path 404"
      d="M2252.657,4562.915l.018-.006Zm-.673,2.2h1.388l-.69-2.124Zm-.094.069.759-2.313h.042v.035l-.008,0,.008,0v-.035h.024l.753,2.313Zm1.62,2.331c.393-.013.777-.029,1.156-.029s.713.016,1.058.029v-.166h-.012a.539.539,0,0,1-.556-.338c-.1-.241-.2-.535-.293-.813l-1.459-4.145c-.025-.063-.048-.135-.068-.191-.007-.008,0-.008-.012-.008h-.015a.2.2,0,0,0-.046.01,2.992,2.992,0,0,1-.7.318,6.659,6.659,0,0,1-.3.989l-1.268,3.639a.757.757,0,0,1-.722.539h-.013v.166c.272-.013.547-.029.822-.029.306,0,.62.016.922.029v-.166h-.051c-.258,0-.619-.032-.629-.312a3.131,3.131,0,0,1,.176-.629l.034.01-.034-.011.261-.847h1.849l.318.942a2.437,2.437,0,0,1,.161.582c-.011.243-.346.26-.526.265h-.053Zm2.247.071c-.356-.015-.713-.033-1.091-.033s-.784.018-1.189.033h-.036v-.309h.122c.184,0,.456-.042.456-.194a2.54,2.54,0,0,0-.156-.56l-.3-.9h-1.749l-.246.8a3.355,3.355,0,0,0-.175.609c0,.194.3.241.562.241h.122v.309h-.036c-.317-.015-.641-.033-.957-.033-.284,0-.57.018-.854.033h-.037v-.309h.082a.681.681,0,0,0,.656-.49l1.269-3.64a9.012,9.012,0,0,0,.315-1,4.04,4.04,0,0,0,.72-.34.229.229,0,0,1,.076-.018.1.1,0,0,1,.088.046c.022.065.047.136.072.2l1.46,4.146c.093.278.187.571.291.806a.465.465,0,0,0,.492.295h.081v.309Z"
      fill="#231815"
    />
    <path
      id="Path_405"
      data-name="Path 405"
      d="M2256.108,4562.413c-.595,0-.618.143-.737.721h-.239c.031-.221.072-.443.1-.674a4.676,4.676,0,0,0,.047-.672h.191c.063.237.262.229.475.229h4.092c.213,0,.41-.007.427-.246l.19.032c-.031.214-.062.428-.086.642s-.018.429-.018.642l-.237.088c-.015-.293-.054-.762-.586-.762h-1.3v4.218c0,.612.278.681.658.681h.151v.239c-.31,0-.864-.031-1.293-.031-.475,0-1.031.031-1.34.031v-.239h.151c.436,0,.658-.039.658-.664v-4.235Z"
      fill="#231815"
    />
    <path
      id="Path_406"
      data-name="Path 406"
      d="M2259.232,4567.585c-.312,0-.867-.032-1.293-.032-.474,0-1.029.032-1.34.032h-.035v-.307h.186c.436-.01.612-.015.623-.63v-4.2h-1.264v-.07h1.334v4.27c0,.636-.257.7-.692.7h-.117v.17c.313,0,.846-.033,1.306-.033.415,0,.944.029,1.258.033v-.17h-.117c-.381,0-.691-.093-.692-.717v-4.253h1.335c.532,0,.6.454.617.748l.173-.063c0-.206,0-.414.016-.622s.052-.406.081-.609l-.12-.02c-.036.23-.26.243-.457.24H2255.9c-.187,0-.39-.009-.461-.232h-.13a4.568,4.568,0,0,1-.049.645c-.021.218-.059.428-.089.636h.17c.1-.552.173-.732.766-.723v.07c-.588.01-.574.109-.7.695l-.006.027h-.306l0-.04c.033-.223.072-.445.1-.674a4.631,4.631,0,0,0,.047-.668v-.036h.251l.007.026c.055.2.2.2.4.2h4.132c.218,0,.379-.007.392-.214l0-.038.037.007.224.036,0,.034c-.033.213-.063.427-.087.64s-.016.426-.016.639v.024l-.023.009-.281.1v-.047c-.021-.3-.052-.728-.553-.728h-1.266v4.183c.008.6.245.64.623.647h.185v.307Z"
      fill="#231815"
    />
    <path
      id="Path_407"
      data-name="Path 407"
      d="M2260.942,4567.312h.111c.287,0,.586-.039.586-.451v-4.153c0-.414-.3-.453-.586-.453h-.111v-.238c.31,0,.785.031,1.173.031s.873-.031,1.246-.031v.238h-.111c-.286,0-.588.039-.588.453v4.153c0,.412.3.451.588.451h.111v.24c-.381,0-.857-.032-1.253-.032s-.856.032-1.166.032Z"
      fill="#231815"
    />
    <path
      id="Path_408"
      data-name="Path 408"
      d="M2263.325,4567.516v-.168h-.075c-.284,0-.621-.049-.621-.487v-4.153c0-.439.337-.488.621-.488h.075v-.168c-.366,0-.824.031-1.21.031s-.831-.03-1.138-.031v.168h.076c.282,0,.62.049.621.488v4.153c0,.438-.339.487-.621.487h-.076v.168c.306,0,.754-.031,1.131-.031s.843.029,1.217.031m.036.069c-.383,0-.858-.033-1.253-.033s-.856.033-1.166.033h-.034v-.307h.145c.286,0,.549-.029.551-.417v-4.153c0-.388-.265-.414-.551-.419h-.145v-.306h.034c.31,0,.787.031,1.173.031s.871-.031,1.246-.031h.033v.306h-.144c-.29,0-.55.031-.553.419v4.153c0,.388.263.413.553.417h.144v.307Z"
      fill="#231815"
    />
    <path
      id="Path_409"
      data-name="Path 409"
      d="M2266.642,4567.321c1.539,0,1.807-1.357,1.807-2.512s-.625-2.562-1.942-2.562c-1.387,0-1.8,1.237-1.8,2.3,0,1.419.65,2.776,1.934,2.776m-.12-5.423a2.782,2.782,0,0,1,3.038,2.736,2.908,2.908,0,0,1-3,3.036,2.8,2.8,0,0,1-2.965-2.846,2.884,2.884,0,0,1,2.924-2.926"
      fill="#231815"
    />
    <path
      id="Path_410"
      data-name="Path 410"
      d="M2264.673,4564.545c0-1.066.419-2.333,1.834-2.333,1.347,0,1.974,1.431,1.977,2.6s-.275,2.545-1.842,2.545v-.068c1.508,0,1.769-1.322,1.773-2.477s-.619-2.525-1.908-2.527c-1.36,0-1.762,1.207-1.765,2.263,0,1.412.645,2.739,1.9,2.741v.068c-1.316,0-1.967-1.382-1.969-2.809m-1.11.279a2.922,2.922,0,0,1,2.96-2.96v.068a2.852,2.852,0,0,0-2.893,2.892,2.77,2.77,0,0,0,2.933,2.811,2.876,2.876,0,0,0,2.964-3,2.749,2.749,0,0,0-3-2.7v-.068a2.818,2.818,0,0,1,3.07,2.769,2.946,2.946,0,0,1-3.03,3.071,2.841,2.841,0,0,1-3-2.88"
      fill="#231815"
    />
    <path
      id="Path_411"
      data-name="Path 411"
      d="M2274.9,4565.989l.016-.016V4563a.655.655,0,0,0-.691-.746h-.172v-.238c.372,0,.737.031,1.108.031.327,0,.651-.031.977-.031v.238h-.12c-.332,0-.706.063-.706,1.007v3.608a5.122,5.122,0,0,0,.048.8h-.3l-4.083-4.551v3.267c0,.689.134.926.745.926h.135v.239c-.341,0-.682-.031-1.022-.031-.357,0-.723.031-1.08.031v-.239h.112c.548,0,.713-.371.713-1v-3.34a.709.709,0,0,0-.721-.712h-.1v-.238c.3,0,.611.031.912.031.238,0,.467-.031.706-.031Z"
      fill="#231815"
    />
    <path
      id="Path_412"
      data-name="Path 412"
      d="M2274.883,4565.973v0l-.006-.005Zm.019.016.026-.023Zm.159,1.646h.26a5.57,5.57,0,0,1-.041-.765v-3.608c0-.953.4-1.04.74-1.042h.086v-.168c-.314,0-.627.031-.944.031-.361,0-.715-.03-1.074-.031v.168h.139a.7.7,0,0,1,.724.781l-.008,3-.015.017-.026.025-3.528-3.987c-.234,0-.466.031-.706.031-.292,0-.59-.03-.878-.031v.168h.07a.747.747,0,0,1,.755.747v3.34c0,.634-.177,1.039-.747,1.042h-.078v.168c.344,0,.7-.031,1.046-.031.33,0,.658.029.988.031v-.167h-.1c-.622,0-.778-.274-.778-.963v-3.357Zm.3.069-.329-.012-4.022-4.484v3.178c.009.689.114.883.709.891h.171v.308h-.034c-.343,0-.684-.032-1.022-.032-.356,0-.72.032-1.08.032h-.033v-.308h.145c.523,0,.673-.338.679-.97v-3.34a.676.676,0,0,0-.687-.678h-.137v-.306h.033c.3,0,.613.031.912.031.235,0,.463-.031.732-.019l3.483,3.922V4563c0-.631-.424-.707-.656-.712h-.208v-.306h.036c.372,0,.738.031,1.107.031.325,0,.649-.031.978-.031h.034v.306h-.154c-.326.009-.663.039-.671.973v3.608a5.3,5.3,0,0,0,.045.795l.007.039Z"
      fill="#231815"
    />
    <path
      id="Path_413"
      data-name="Path 413"
      d="M2278.572,4562.9h-.016l-.738,2.244h1.484Zm-1.159,3.512a3.4,3.4,0,0,0-.174.618c0,.238.335.277.595.277h.088v.239c-.317-.016-.643-.031-.96-.031-.286,0-.57.015-.855.031v-.239h.045a.717.717,0,0,0,.69-.515l1.27-3.638a6.442,6.442,0,0,0,.293-.984,4.087,4.087,0,0,0,.723-.34.155.155,0,0,1,.062-.017c.024,0,.039,0,.055.025.024.063.048.135.072.2l1.458,4.146c.1.278.19.571.294.81a.5.5,0,0,0,.523.315h.049v.239c-.357-.016-.714-.031-1.1-.031s-.784.015-1.189.031v-.239h.088c.181,0,.492-.031.492-.229a2.544,2.544,0,0,0-.16-.571l-.308-.919h-1.8Z"
      fill="#231815"
    />
    <path
      id="Path_414"
      data-name="Path 414"
      d="M2278.539,4562.915l.016-.006Zm-.673,2.2h1.387l-.69-2.123Zm-.095.068.76-2.312h.041v.035l-.009,0,.009,0v-.035h.025l.75,2.312Zm1.619,2.333c.392-.014.778-.03,1.155-.03s.715.016,1.06.029v-.166h-.013a.541.541,0,0,1-.554-.338c-.105-.241-.2-.535-.294-.811l-1.459-4.147c-.024-.063-.048-.135-.067-.19-.006-.009-.006-.009-.011-.009h-.016a.144.144,0,0,0-.045.011,3.02,3.02,0,0,1-.706.317,6.7,6.7,0,0,1-.3.989l-1.269,3.639a.753.753,0,0,1-.722.539h-.011v.166c.273-.013.545-.029.821-.029.307,0,.62.016.925.029v-.166h-.053c-.258,0-.62-.031-.629-.313a3.212,3.212,0,0,1,.176-.628l.032.01-.032-.011.261-.847h1.849l.318.942a2.465,2.465,0,0,1,.159.582c-.012.243-.344.26-.525.265h-.053Zm2.247.07c-.357-.014-.713-.032-1.092-.032s-.783.018-1.187.032h-.035v-.308h.12c.185,0,.457-.043.458-.195a2.455,2.455,0,0,0-.158-.56l-.3-.9h-1.749l-.245.8a3.273,3.273,0,0,0-.173.608c0,.195.3.243.56.243h.121v.308h-.036c-.316-.014-.641-.032-.957-.032-.284,0-.569.018-.855.032h-.034v-.308h.079a.686.686,0,0,0,.659-.491l1.268-3.64a10.1,10.1,0,0,0,.315-1,4.234,4.234,0,0,0,.721-.341.217.217,0,0,1,.075-.017.089.089,0,0,1,.087.047c.024.062.047.134.073.2l1.458,4.146c.095.278.19.571.293.807a.466.466,0,0,0,.49.295h.082v.308Z"
      fill="#231815"
    />
    <path
      id="Path_415"
      data-name="Path 415"
      d="M2283.638,4566.774c0,.318.221.412.474.444a5.571,5.571,0,0,0,1.048-.016,1.127,1.127,0,0,0,.76-.428,1.793,1.793,0,0,0,.246-.571h.23c-.087.452-.2.9-.294,1.349-.7,0-1.4-.032-2.092-.032s-1.4.032-2.093.032v-.24h.109c.286,0,.6-.039.6-.531v-4.073c0-.414-.31-.453-.6-.453h-.109v-.238c.419,0,.832.031,1.252.031s.8-.031,1.205-.031v.238h-.2c-.3,0-.537.009-.537.428Z"
      fill="#231815"
    />
    <path
      id="Path_416"
      data-name="Path 416"
      d="M2286.073,4567.516c.092-.43.2-.851.281-1.279h-.163a1.787,1.787,0,0,1-.244.558,1.177,1.177,0,0,1-.785.442c-.208.02-.413.032-.608.032-.154,0-.3-.007-.446-.017-.258-.029-.508-.139-.507-.478v-4.091c0-.441.279-.463.574-.463h.164v-.168c-.39,0-.776.031-1.17.031-.411,0-.813-.03-1.219-.031v.168h.076c.283,0,.63.049.63.486v4.076c0,.513-.345.566-.63.566h-.076v.168c.686,0,1.371-.031,2.06-.031s1.377.03,2.063.031m.029.069c-.7,0-1.4-.032-2.092-.032s-1.4.032-2.095.032h-.033v-.307h.144c.288-.006.559-.026.562-.5v-4.076c0-.386-.273-.412-.562-.417h-.144v-.306h.033c.422,0,.835.031,1.254.031.4,0,.8-.031,1.205-.031h.033v.306h-.232c-.307.008-.5,0-.5.394v4.091c0,.295.2.375.443.41.14.01.287.015.44.015a5.622,5.622,0,0,0,.6-.031,1.1,1.1,0,0,0,.738-.414,1.8,1.8,0,0,0,.24-.559l.007-.027h.3l-.007.042c-.09.454-.2.9-.295,1.348l-.007.027Z"
      fill="#231815"
    />
    <path
      id="Path_417"
      data-name="Path 417"
      d="M2286.165,4562.629h.1c.107,0,.158-.082.158-.213a.156.156,0,0,0-.164-.179h-.093Zm-.281.44v-.041c.1-.014.121-.011.121-.075v-.618c0-.086-.009-.116-.118-.112v-.042h.428c.147,0,.281.07.281.221a.263.263,0,0,1-.2.253l.137.191a.88.88,0,0,0,.185.2v.026h-.164c-.077,0-.146-.164-.3-.384h-.093v.277c0,.055.019.052.122.066v.041Zm.415.237a.679.679,0,1,0-.662-.677.672.672,0,0,0,.662.677m0-1.514a.834.834,0,1,1-.835.837.821.821,0,0,1,.835-.837"
      fill="#231815"
    />
  </g>
  <g id="Group_215" data-name="Group 215" transform="translate(-1762.827 -4520.158)">
    <path id="Path_418" data-name="Path 418" d="M2316.582,4521.625h70.1v44.63H2316.6Z" fill="#fff" />
    <path
      id="Path_419"
      data-name="Path 419"
      d="M2386.444,4546.448s-19.156,13.508-54.236,19.565h54.236Z"
      fill="#f38020"
    />
    <path
      id="Path_420"
      data-name="Path 420"
      d="M2386.686,4521.365h-70.345v45.15h70.6v-45.169h-.26Zm-.242.5V4566h-69.583v-44.128Z"
      fill="#231f20"
    />
    <path
      id="Path_421"
      data-name="Path 421"
      d="M2322.509,4535.17h-2.917v10.219h2.917a5.4,5.4,0,0,0,3.642-1.17,5.11,5.11,0,0,0,1.858-3.921C2327.991,4537.27,2325.742,4535.17,2322.509,4535.17Zm2.342,7.692a3.813,3.813,0,0,1-2.732.818h-.539v-6.763h.539a3.74,3.74,0,0,1,2.732.817,3.437,3.437,0,0,1,1.1,2.546A3.517,3.517,0,0,1,2324.851,4542.862Z"
      fill="#231f20"
    />
    <rect
      id="Rectangle_193"
      data-name="Rectangle 193"
      width="1.988"
      height="10.219"
      transform="translate(2328.92 4535.17)"
      fill="#231f20"
    />
    <path
      id="Path_422"
      data-name="Path 422"
      d="M2335.776,4539.091c-1.189-.446-1.542-.744-1.542-1.283,0-.65.631-1.133,1.486-1.133a2,2,0,0,1,1.6.836l1.04-1.356a4.494,4.494,0,0,0-3.01-1.134,3.019,3.019,0,0,0-3.195,2.936c0,1.412.65,2.137,2.508,2.806a9.733,9.733,0,0,1,1.375.576,1.243,1.243,0,0,1,.594,1.059,1.452,1.452,0,0,1-1.542,1.449,2.384,2.384,0,0,1-2.174-1.356l-1.282,1.245a3.954,3.954,0,0,0,3.531,1.951,3.3,3.3,0,0,0,3.53-3.363C2338.73,4540.67,2338.043,4539.927,2335.776,4539.091Z"
      fill="#231f20"
    />
    <path
      id="Path_423"
      data-name="Path 423"
      d="M2339.343,4540.3a5.287,5.287,0,0,0,5.388,5.333,5.43,5.43,0,0,0,2.49-.595v-2.341a3.178,3.178,0,0,1-2.4,1.115,3.342,3.342,0,0,1-3.437-3.53,3.394,3.394,0,0,1,3.344-3.512,3.285,3.285,0,0,1,2.49,1.152v-2.341a5.074,5.074,0,0,0-2.452-.632A5.381,5.381,0,0,0,2339.343,4540.3Z"
      fill="#231f20"
    />
    <path
      id="Path_424"
      data-name="Path 424"
      d="M2363.052,4542.045l-2.731-6.875h-2.174l4.329,10.479h1.078l4.4-10.479H2365.8Z"
      fill="#231f20"
    />
    <path
      id="Path_425"
      data-name="Path 425"
      d="M2368.867,4545.389h5.648v-1.728h-3.66v-2.75h3.53v-1.728h-3.53v-2.267h3.66v-1.747h-5.648Z"
      fill="#231f20"
    />
    <path
      id="Path_426"
      data-name="Path 426"
      d="M2382.412,4538.2c0-1.914-1.319-3.01-3.623-3.01h-2.954v10.219h1.988V4541.3h.26l2.75,4.106h2.453l-3.215-4.311A2.736,2.736,0,0,0,2382.412,4538.2Zm-4.013,1.69h-.576v-3.1h.613c1.245,0,1.914.52,1.914,1.523C2380.35,4539.332,2379.681,4539.889,2378.4,4539.889Z"
      fill="#231f20"
    />
    <circle
      id="Ellipse_96"
      data-name="Ellipse 96"
      cx="5.444"
      cy="5.444"
      r="5.444"
      transform="translate(2347.89 4534.873)"
      fill="url(#linear-gradient-6)"
    />
    <circle
      id="Ellipse_97"
      data-name="Ellipse 97"
      cx="5.444"
      cy="5.444"
      r="5.444"
      transform="translate(2347.89 4534.873)"
      opacity="0.65"
      fill="url(#linear-gradient-7)"
      style="isolation: isolate"
    />
    <g id="Group_214" data-name="Group 214">
      <path
        id="Path_427"
        data-name="Path 427"
        d="M2383.676,4535.56c0-.186-.13-.278-.334-.278h-.3v.891h.223v-.353l.26.353h.26l-.3-.371A.227.227,0,0,0,2383.676,4535.56Zm-.372.13h-.037v-.241h.037c.112,0,.168.037.168.111C2383.472,4535.653,2383.416,4535.69,2383.3,4535.69Z"
        fill="#231f20"
      />
      <path
        id="Path_428"
        data-name="Path 428"
        d="M2383.379,4534.947a.781.781,0,1,0,.78.78A.785.785,0,0,0,2383.379,4534.947Zm0,1.431a.652.652,0,1,1,.613-.651A.642.642,0,0,1,2383.379,4536.378Z"
        fill="#231f20"
      />
    </g>
  </g>
</svg>
