<svg xmlns="http://www.w3.org/2000/svg" width="51.371" height="51.371" viewBox="0 0 51.371 51.371">
  <g id="Group_480" data-name="Group 480" transform="translate(-44.336 -208.585)">
    <g id="Group_479" data-name="Group 479">
      <g id="Group_478" data-name="Group 478">
        <circle id="Ellipse_183" data-name="Ellipse 183" cx="25.686" cy="25.686" r="25.686" transform="translate(44.336 208.585)"/>
      </g>
      <g id="Group_472" data-name="Group 472">
        <path id="Path_664" data-name="Path 664" d="M67.834,239.314a10.667,10.667,0,0,1,.21-2.218,5.519,5.519,0,0,1,.9-1.883l3.83-5.316a4.972,4.972,0,0,0,1.067-2.825,3.748,3.748,0,0,0-1.172-2.825,3.934,3.934,0,0,0-5.252.042A4.652,4.652,0,0,0,66.2,227.93H61.829v-.858a7.818,7.818,0,0,1,2.448-5.838,7.97,7.97,0,0,1,5.65-2.344,8.551,8.551,0,0,1,5.755,2.176,7.853,7.853,0,0,1,2.532,6.048,7.535,7.535,0,0,1-1.381,4.5L72.94,236.97a4.391,4.391,0,0,0-.732,2.7v2.448H67.834Zm0,5.964h4.374v4.374H67.834Z" fill="#fff"/>
      </g>
    </g>
  </g>
</svg>
