<svg
  xmlns="http://www.w3.org/2000/svg"
  xmlns:xlink="http://www.w3.org/1999/xlink"
  width="60.184"
  height="45.169"
  viewBox="0 0 60.184 45.169"
>
  <defs>
    <linearGradient
      id="linear-gradient"
      x1="-331.155"
      y1="2238.696"
      x2="-330.923"
      y2="2238.696"
      gradientUnits="objectBoundingBox"
    >
      <stop offset="0" stop-color="#007940" />
      <stop offset="0.229" stop-color="#00863f" />
      <stop offset="0.743" stop-color="#40a637" />
      <stop offset="1" stop-color="#5cb431" />
    </linearGradient>
    <linearGradient
      id="linear-gradient-2"
      x1="-114.131"
      y1="197.527"
      x2="-114.051"
      y2="197.527"
      xlink:href="#linear-gradient"
    />
    <linearGradient
      id="linear-gradient-3"
      x1="-361.483"
      y1="2444.042"
      x2="-361.23"
      y2="2444.042"
      xlink:href="#linear-gradient"
    />
    <linearGradient
      id="linear-gradient-4"
      x1="-112.069"
      y1="197.711"
      x2="-111.988"
      y2="197.711"
      gradientUnits="objectBoundingBox"
    >
      <stop offset="0" stop-color="#1f286f" />
      <stop offset="0.475" stop-color="#004e93" />
      <stop offset="0.826" stop-color="#0066b0" />
      <stop offset="1" stop-color="#006fbb" />
    </linearGradient>
    <linearGradient
      id="linear-gradient-5"
      x1="-113.102"
      y1="197.347"
      x2="-113.024"
      y2="197.347"
      gradientUnits="objectBoundingBox"
    >
      <stop offset="0" stop-color="#6c2c2f" />
      <stop offset="0.173" stop-color="#872730" />
      <stop offset="0.573" stop-color="#bd1833" />
      <stop offset="0.859" stop-color="#db0436" />
      <stop offset="1" stop-color="#e50039" />
    </linearGradient>
  </defs>
  <g id="Group_212" data-name="Group 212" transform="translate(-1988.032 -4521.346)">
    <path
      id="Path_373"
      data-name="Path 373"
      d="M2033.366,4548.77h4.343c.124,0,.414-.041.538-.041a1.939,1.939,0,0,0,1.531-1.944,2.008,2.008,0,0,0-1.531-1.944,2.152,2.152,0,0,0-.538-.042h-4.343Z"
      fill="url(#linear-gradient)"
    />
    <path
      id="Path_374"
      data-name="Path 374"
      d="M2037.213,4521.346a7.529,7.529,0,0,0-7.528,7.529v7.817h10.63a4.2,4.2,0,0,1,.745.042c2.4.124,4.177,1.365,4.177,3.515,0,1.7-1.2,3.144-3.433,3.434v.082c2.441.166,4.3,1.531,4.3,3.64,0,2.275-2.068,3.764-4.8,3.764h-11.664v15.305h11.044a7.53,7.53,0,0,0,7.528-7.528v-37.6Z"
      fill="url(#linear-gradient-2)"
    />
    <path
      id="Path_375"
      data-name="Path 375"
      d="M2039.24,4540.746a1.76,1.76,0,0,0-1.531-1.779c-.082,0-.289-.041-.413-.041h-3.93v3.64h3.93a1.132,1.132,0,0,0,.413-.042,1.759,1.759,0,0,0,1.531-1.778Z"
      fill="url(#linear-gradient-3)"
    />
    <path
      id="Path_376"
      data-name="Path 376"
      d="M1995.6,4521.346a7.529,7.529,0,0,0-7.528,7.529v18.572a14.88,14.88,0,0,0,6.494,1.7c2.6,0,4.012-1.571,4.012-3.722v-8.769h6.452v8.727c0,3.392-2.109,6.164-9.265,6.164a31.731,31.731,0,0,1-7.735-.952v15.842h11.044a7.529,7.529,0,0,0,7.528-7.528v-37.558Z"
      fill="url(#linear-gradient-4)"
    />
    <path
      id="Path_377"
      data-name="Path 377"
      d="M2016.407,4521.346a7.529,7.529,0,0,0-7.528,7.529v9.844c1.9-1.613,5.212-2.647,10.548-2.4a33.552,33.552,0,0,1,5.915.91v3.185a14.33,14.33,0,0,0-5.708-1.655c-4.054-.289-6.494,1.7-6.494,5.171,0,3.516,2.44,5.5,6.494,5.17a15.03,15.03,0,0,0,5.708-1.654v3.185a32.859,32.859,0,0,1-5.915.91c-5.336.248-8.645-.786-10.548-2.4v17.373h11.044a7.528,7.528,0,0,0,7.528-7.528v-37.641Z"
      fill="url(#linear-gradient-5)"
    />
  </g>
</svg>
