<svg xmlns="http://www.w3.org/2000/svg" width="93.663" height="30.386" viewBox="0 0 93.663 30.386">
  <g id="Group_210" data-name="Group 210" transform="translate(-1762.827 -4528.738)">
    <g id="Group_209" data-name="Group 209">
      <path
        id="Path_369"
        data-name="Path 369"
        d="M1803.431,4558.617h-7.643l4.777-29.355h7.643Zm-14.073-29.355-7.286,20.191-.862-4.348v0l-2.572-13.2s-.311-2.643-3.625-2.643h-12.046l-.141.5a28.623,28.623,0,0,1,7.994,3.355l6.64,25.5h7.963l12.16-29.356Zm60.114,29.355h7.018l-6.119-29.356h-6.143a3.512,3.512,0,0,0-3.528,2.188l-11.4,27.168h7.967l1.593-4.36h9.716l.9,4.36Zm-8.41-10.384,4.016-10.985,2.259,10.985Zm-11.163-11.912,1.09-6.3a22.051,22.051,0,0,0-6.874-1.28c-3.792,0-12.8,1.657-12.8,9.718,0,7.583,10.571,7.678,10.571,11.661s-9.482,3.27-12.611.758l-1.136,6.591a21.406,21.406,0,0,0,8.626,1.658c5.216,0,13.084-2.7,13.084-10.05,0-7.633-10.666-8.344-10.666-11.662s7.444-2.893,10.715-1.091Z"
        fill="#2566ae"
      />
    </g>
    <path
      id="Path_370"
      data-name="Path 370"
      d="M1781.211,4545.106l-2.572-13.2s-.311-2.643-3.625-2.643h-12.046l-.141.5a29.618,29.618,0,0,1,11.343,5.7A22.9,22.9,0,0,1,1781.211,4545.106Z"
      fill="#e5a440"
    />
  </g>
</svg>
